<?xml version="1.0" standalone="no"?>
<!DOCTYPE svg PUBLIC "-//W3C//DTD SVG 1.1//EN" "http://www.w3.org/Graphics/SVG/1.1/DTD/svg11.dtd" >
<svg xmlns="http://www.w3.org/2000/svg" xmlns:xlink="http://www.w3.org/1999/xlink" version="1.1">
<metadata>
Created by FontForge 20141024 at Wed Apr 22 11:57:48 2015
 By System Administrator
Copyright (c) 2014, font-store.ir &#60;http://font-store.ir|info@font-store.ir&#62;,with Reserved Font Name Iranian Sans .

This Font Software is licensed under the SIL Open Font License, Version 1.1.
This license is copied below, and is also available with a FAQ at:
http://scripts.sil.org/OFL
</metadata>
<defs>
<font id="IranianSansWeb-Regular" horiz-adv-x="545" >
  <font-face 
    font-family="Iranian Sans "
    font-weight="400"
    font-stretch="normal"
    units-per-em="1000"
    panose-1="2 0 5 3 0 0 0 0 0 0"
    ascent="760"
    descent="-240"
    bbox="-109 -376 1416 733"
    underline-thickness="48"
    underline-position="-48"
    stemh="80"
    stemv="65"
    unicode-range="U+000D-FEFC"
  />
<missing-glyph horiz-adv-x="514" 
d="M43 -191v757h430v-757h-430zM425 517h-334v-661h334v661z" />
    <glyph glyph-name="uniFD3C" unicode="&#xfe8e;&#x64b;" horiz-adv-x="327" arabic-form="final" 
d="M256 684l-204 -82v39l204 82v-39zM256 574l-204 -82v38l204 83v-39zM330 0h-51c-87 0 -139 27 -153 82c-6 19 -7 43 -7 68v313h65v-313c0 -24 8 -42 21 -53s36 -17 69 -17h56v-80z" />
    <glyph glyph-name="uniFD3D" unicode="&#xfe8d;&#x64b;" horiz-adv-x="300" arabic-form="isolated" 
d="M256 684l-204 -82v39l204 82v-39zM256 574l-204 -82v38l204 83v-39zM184 0h-65v463h65v-463z" />
    <glyph glyph-name="uniFEF5" unicode="&#xfedf;&#xfe82;" horiz-adv-x="603" arabic-form="isolated" 
d="M327 635c-69 -43 -134 -64 -193 -64c-18 0 -41 2 -72 8c-3 -9 -6 -19 -6 -30v-29h-43c0 33 3 59 12 80s16 34 23 42c18 -12 50 -17 96 -17s100 19 160 56zM210 20c31 10 56 17 75 24c-8 91 -23 168 -46 227s-60 108 -107 146l40 64c99 -79 158 -217 177 -415
c41 16 67 30 81 41c26 21 41 43 41 65v441h64v-441c0 -55 -25 -101 -76 -136c-41 -29 -97 -52 -166 -73l-64 -21z" />
    <glyph glyph-name="uniFEF6" unicode="&#xfee0;&#xfe82;" horiz-adv-x="660" arabic-form="final" 
d="M327 635c-69 -43 -134 -64 -193 -64c-18 0 -41 2 -72 8c-3 -9 -6 -19 -6 -30v-29h-43c0 33 3 59 12 80s16 34 23 42c18 -12 50 -17 96 -17s100 19 160 56zM183 24l119 22c-8 84 -20 148 -36 192s-34 80 -54 111c-21 31 -46 59 -78 84l39 64c92 -76 151 -181 176 -315
c8 -38 13 -78 17 -116c68 26 103 62 103 106v441h65v-441c0 -35 9 -59 28 -72s52 -20 99 -20v-80c-48 0 -81 3 -100 10s-33 14 -44 22c-10 8 -17 19 -25 31c-44 -51 -113 -85 -205 -101l-95 -17z" />
    <glyph glyph-name="he8_uni0654.isol" unicode="&#xfee9;&#x654;" horiz-adv-x="458" 
d="M157 490c-28 15 -41 37 -41 66s10 52 31 73s50 31 84 31c21 0 44 -3 69 -12l-14 -52c-21 7 -39 10 -57 10s-35 -4 -49 -14s-22 -22 -22 -36c0 -12 15 -21 40 -25c8 -1 14 -2 23 -2s20 3 35 7l18 -45c-57 -40 -120 -61 -188 -67l-5 54c32 3 57 8 76 12zM184 377
c30 -10 58 -23 86 -41c98 -63 146 -128 146 -194c0 -24 -14 -52 -40 -82s-68 -51 -125 -64c-16 -4 -34 -6 -53 -6c-41 0 -75 14 -104 39s-43 57 -43 97c0 51 26 116 80 192c22 31 40 50 53 59zM197 287c-19 -21 -37 -47 -55 -79s-28 -60 -28 -82c0 -25 19 -42 54 -51
c11 -3 28 -5 51 -5s50 8 83 22s49 31 49 50c0 46 -51 94 -154 145z" />
    <glyph glyph-name="he8_uni0654.fina" unicode="&#xfeea;&#x654;" horiz-adv-x="489" 
d="M147 528c-28 15 -41 37 -41 66s11 53 32 74s49 30 83 30c21 0 44 -3 69 -12l-14 -51c-21 7 -39 10 -57 10s-35 -5 -49 -15s-22 -22 -22 -36c0 -12 15 -20 40 -24c8 -1 14 -2 23 -2s20 2 35 6l18 -45c-57 -40 -120 -61 -188 -67l-4 55c32 3 56 7 75 11zM491 0
c-41 0 -70 4 -89 12s-35 18 -47 32s-23 33 -32 57l-12 -54c-79 4 -131 11 -155 19c-64 19 -94 49 -94 92c0 75 39 136 118 183c24 14 49 26 78 36l-14 62l63 17l70 -304c9 -44 35 -68 77 -71c12 -1 25 -1 37 -1v-80zM276 299c-100 -37 -151 -81 -151 -135
c0 -16 42 -28 123 -32c23 -1 44 -2 67 -3z" />
    <glyph glyph-name="he8_uni0654.init" unicode="&#xfeeb;&#x654;" horiz-adv-x="526" 
d="M326 528c-28 15 -42 37 -42 66s11 53 32 74s49 30 83 30c21 0 45 -3 70 -12l-15 -51c-21 7 -39 10 -57 10s-34 -5 -48 -15s-22 -22 -22 -36c0 -12 14 -20 39 -24c8 -1 14 -2 23 -2s21 2 36 6l17 -45c-57 -40 -120 -61 -188 -67l-4 55c32 3 57 7 76 11zM256 211
c0 69 -11 105 -33 105c-7 0 -16 -2 -28 -8s-24 -13 -35 -23c-26 -25 -41 -54 -41 -88s19 -62 54 -85c56 22 83 55 83 99zM321 211c0 -54 -23 -99 -68 -135c40 -12 72 -19 95 -19s40 5 50 15s16 22 16 36s-9 34 -24 58s-38 52 -70 82c1 -9 1 -15 1 -22v-15zM173 31
c-55 -21 -113 -31 -173 -31c-10 0 -20 3 -30 6v74h30c33 0 65 3 96 9c-28 30 -41 66 -41 108c0 68 30 125 92 170c-10 6 -26 14 -48 26l30 71c48 -25 91 -50 128 -75c68 -40 125 -92 168 -155c36 -52 53 -93 53 -127s-12 -66 -36 -92s-53 -38 -86 -38s-75 9 -128 29
c-19 7 -37 15 -55 25z" />
    <glyph glyph-name="he8_uni0654.medi" unicode="&#xfeec;&#x654;" horiz-adv-x="456" 
d="M157 528c-28 15 -41 37 -41 66s10 53 31 74s50 30 84 30c21 0 44 -3 69 -12l-14 -51c-21 7 -39 10 -57 10s-35 -5 -49 -15s-22 -22 -22 -36c0 -12 15 -20 40 -24c8 -1 14 -2 23 -2s20 2 35 6l18 -45c-57 -40 -120 -61 -188 -67l-5 55c32 3 57 7 76 11zM142 90
c42 8 72 17 93 29c35 21 52 40 52 55c0 32 -11 62 -34 93s-45 47 -68 47c-10 0 -20 -20 -29 -57s-14 -87 -14 -150v-11v-6zM339 -53c-4 -9 -7 -22 -7 -42s2 -35 8 -47l-22 -76c-120 46 -196 120 -226 221c-15 -2 -31 -3 -47 -3h-45c-10 0 -20 3 -30 6v74h75c11 0 22 0 33 1
c-1 3 -1 9 -1 13v13c0 88 13 160 37 214c11 24 23 43 36 55s25 18 36 18c23 0 48 -11 74 -34s46 -51 64 -85s27 -67 27 -99s-18 -63 -53 -94s-82 -53 -138 -68c20 -48 55 -89 108 -122v16v17c0 34 14 69 44 104s69 51 116 51h30v-80h-30c-42 0 -71 -18 -89 -53z" />
    <glyph glyph-name="uniFEFB_earab.tanvin_fatheh" unicode="&#xfedf;&#xfd3c;" horiz-adv-x="603" 
d="M256 684l-204 -82v39l204 82v-39zM256 574l-204 -82v38l204 83v-39zM210 20c31 10 56 17 75 24c-8 91 -23 168 -46 227s-60 108 -107 146l40 64c99 -79 158 -217 177 -415c41 16 67 30 81 41c26 21 41 43 41 65v441h64v-441c0 -55 -25 -101 -76 -136
c-41 -29 -97 -52 -166 -73l-64 -21z" />
    <glyph glyph-name="uniFEFC_earab.tanvin_fatheh" unicode="&#xfee0;&#xfd3c;" horiz-adv-x="660" 
d="M256 684l-204 -82v39l204 82v-39zM256 574l-204 -82v38l204 83v-39zM183 24l119 22c-8 84 -20 148 -36 192s-34 80 -54 111c-21 31 -46 59 -78 84l39 64c92 -76 151 -181 176 -315c8 -38 13 -78 17 -116c68 26 103 62 103 106v441h65v-441c0 -35 9 -59 28 -72
s52 -20 99 -20v-80c-48 0 -81 3 -100 10s-33 14 -44 22c-10 8 -17 19 -25 31c-44 -51 -113 -85 -205 -101l-95 -17z" />
    <glyph glyph-name="sin_ye.farsi.isol" unicode="&#xfeb3;&#xfef0;" horiz-adv-x="1312" 
d="M996 53c-26 -35 -61 -53 -103 -53c-65 0 -110 25 -135 78c-8 15 -14 33 -22 53s-20 37 -35 52s-37 23 -63 23c-46 0 -88 -8 -125 -22s-55 -33 -55 -55c0 -7 2 -12 8 -15c13 -7 40 -14 80 -25s66 -24 79 -38s20 -40 20 -75c0 -58 -69 -105 -209 -139
c-60 -14 -123 -22 -187 -22s-113 13 -147 41s-51 69 -51 124s23 123 68 202l53 -26c-6 -10 -11 -22 -19 -34c-25 -46 -39 -95 -39 -148s47 -78 138 -78c70 0 128 4 174 13s78 16 96 22c40 13 60 29 60 45c0 9 -4 15 -14 21s-34 13 -74 24s-65 24 -79 38s-21 35 -21 58
s3 42 10 56c20 41 58 71 114 92c36 13 71 21 104 21c55 0 98 -14 124 -42c18 -18 32 -43 45 -77s25 -55 33 -63c16 -16 38 -24 63 -24s46 9 60 24s22 32 22 46v60h64v-64c0 -22 8 -38 23 -50s29 -18 41 -18s23 2 33 4c28 8 47 20 59 35c6 8 8 14 8 22c0 33 -14 90 -39 170
l66 6c21 -65 34 -107 36 -128s2 -39 2 -54c0 -33 -16 -63 -48 -91s-66 -42 -103 -42h-1c-36 0 -67 10 -92 29c-9 7 -15 14 -22 24z" />
    <glyph glyph-name="sin_ye.farsi.fina" unicode="&#xfeb4;&#xfef0;" horiz-adv-x="1359" 
d="M252 -104c70 0 128 4 174 13s78 16 96 22c40 13 60 29 60 45c0 9 -4 15 -14 21s-34 13 -74 24s-65 24 -79 38s-21 35 -21 58s3 42 10 56c20 41 58 71 114 92c36 13 71 21 104 21c55 0 97 -14 123 -42c18 -19 33 -44 45 -77s23 -53 32 -61c18 -16 37 -26 62 -26
s46 9 61 24s23 32 23 46v60h63v-64c0 -22 8 -38 22 -49s32 -17 53 -17s38 10 52 26s22 32 22 46v58h63v-63c0 -22 7 -38 22 -49s32 -18 51 -18h45v-80h-45c-46 0 -82 19 -110 56c-25 -37 -61 -56 -104 -56c-33 0 -62 10 -86 30c-9 7 -15 14 -22 24c-26 -36 -61 -54 -103 -54
c-64 0 -108 25 -134 78c-8 15 -15 33 -23 54c-20 50 -53 74 -98 74s-86 -8 -123 -22s-55 -33 -55 -55c0 -7 2 -12 8 -15c13 -7 40 -14 80 -25s66 -24 79 -38s20 -40 20 -75c0 -58 -69 -105 -209 -139c-60 -14 -123 -22 -187 -22s-113 13 -147 41s-51 69 -51 124
s23 123 68 202l53 -26c-6 -10 -11 -22 -19 -34c-25 -46 -39 -95 -39 -148s47 -78 138 -78z" />
    <glyph glyph-name="sad_ye.farsi.isol" unicode="&#xfebb;&#xfbfd;" horiz-adv-x="1391" 
d="M252 -104c70 0 128 4 174 13s78 16 96 22c40 13 60 29 60 45c0 9 -4 15 -14 21s-34 13 -74 24s-65 24 -79 38s-21 35 -21 58s3 42 10 56c20 41 58 71 114 92c36 13 71 21 104 21c55 0 97 -14 123 -42c18 -19 35 -50 51 -94s50 -68 96 -69c80 108 147 180 201 216
c42 29 77 43 107 43s54 -9 75 -25s37 -37 49 -61s18 -46 18 -67s-6 -43 -18 -66s-31 -44 -55 -62c-54 -40 -128 -59 -224 -59h-141c-67 0 -115 25 -146 78c-9 15 -16 33 -24 54c-20 50 -53 74 -98 74s-86 -8 -123 -22s-55 -33 -55 -55c0 -7 2 -12 8 -15c13 -7 40 -14 80 -25
s66 -24 79 -38s20 -40 20 -75c0 -58 -69 -105 -209 -139c-60 -14 -123 -22 -187 -22s-113 13 -147 41s-51 69 -51 124s23 123 68 202l53 -26c-6 -10 -11 -22 -19 -34c-25 -46 -39 -95 -39 -148s47 -78 138 -78zM1045 80c75 0 133 11 174 33s60 46 60 76c0 14 -5 28 -14 39
c-19 21 -37 30 -53 30s-35 -1 -54 -9s-38 -20 -58 -38s-39 -34 -55 -50s-38 -44 -67 -81h67z" />
    <glyph glyph-name="sad_ye.farsi.fina" unicode="&#xfebc;&#xfbfd;" horiz-adv-x="1413" 
d="M1032 78c76 0 133 11 174 32s60 46 60 76c0 14 -4 27 -13 38c-19 21 -37 32 -53 32c-28 0 -57 -9 -91 -30s-82 -71 -144 -148h67zM1289 86c14 -3 58 -6 127 -6v-80c-78 0 -128 3 -150 10s-41 13 -59 20c-53 -22 -111 -33 -175 -33h-141c-63 0 -108 27 -134 81
c-8 15 -15 33 -23 54c-20 50 -53 74 -98 74s-86 -8 -123 -22s-55 -33 -55 -55c0 -7 2 -12 8 -15c13 -7 40 -14 80 -25s66 -24 79 -38s20 -40 20 -75c0 -58 -69 -105 -209 -139c-60 -14 -123 -22 -187 -22s-113 13 -147 41s-51 69 -51 124s23 123 68 202l53 -26
c-6 -10 -11 -22 -19 -34c-25 -46 -39 -95 -39 -148s47 -78 138 -78c70 0 128 4 174 13s78 16 96 22c40 13 60 29 60 45c0 9 -4 15 -14 21s-34 13 -74 24s-65 24 -79 38s-21 35 -21 58s3 42 10 56c20 41 58 71 114 92c36 13 71 21 104 21c55 0 97 -14 123 -42
c18 -19 33 -44 45 -77s22 -52 30 -60c15 -16 35 -27 59 -28c79 106 147 179 201 216c41 29 80 43 115 43c50 0 87 -30 117 -89c11 -22 17 -43 17 -63c0 -34 -14 -67 -40 -100z" />
    <glyph glyph-name="shin_ye.farsi.isol" unicode="&#xfeb7;&#xfbfd;" horiz-adv-x="1312" 
d="M924 365h-84v84h84v-84zM1055 365h-84v84h84v-84zM989 493h-84v83h84v-83zM996 53c-26 -35 -61 -53 -103 -53c-65 0 -110 25 -135 78c-8 15 -14 33 -22 53s-20 37 -35 52s-37 23 -63 23c-46 0 -88 -8 -125 -22s-55 -33 -55 -55c0 -7 2 -12 8 -15c13 -7 40 -14 80 -25
s66 -24 79 -38s20 -40 20 -75c0 -58 -69 -105 -209 -139c-60 -14 -123 -22 -187 -22s-113 13 -147 41s-51 69 -51 124s23 123 68 202l53 -26c-6 -10 -11 -22 -19 -34c-25 -46 -39 -95 -39 -148s47 -78 138 -78c70 0 128 4 174 13s78 16 96 22c40 13 60 29 60 45
c0 9 -4 15 -14 21s-34 13 -74 24s-65 24 -79 38s-21 35 -21 58s3 42 10 56c20 41 58 71 114 92c36 13 71 21 104 21c55 0 98 -14 124 -42c18 -18 32 -43 45 -77s25 -55 33 -63c16 -16 38 -24 63 -24s46 9 60 24s22 32 22 46v60h64v-64c0 -22 8 -38 23 -50s29 -18 41 -18
s23 2 33 4c28 8 47 20 59 35c6 8 8 14 8 22c0 33 -14 90 -39 170l66 6c21 -65 34 -107 36 -128s2 -39 2 -54c0 -33 -16 -63 -48 -91s-66 -42 -103 -42h-1c-36 0 -67 10 -92 29c-9 7 -15 14 -22 24z" />
    <glyph glyph-name="shin_ye.farsi.fina" unicode="&#xfeb8;&#xfbfd;" horiz-adv-x="1359" 
d="M924 365h-84v84h84v-84zM1055 365h-84v84h84v-84zM989 493h-84v83h84v-83zM252 -104c70 0 128 4 174 13s78 16 96 22c40 13 60 29 60 45c0 9 -4 15 -14 21s-34 13 -74 24s-65 24 -79 38s-21 35 -21 58s3 42 10 56c20 41 58 71 114 92c36 13 71 21 104 21
c55 0 97 -14 123 -42c18 -19 33 -44 45 -77s23 -53 32 -61c18 -16 37 -26 62 -26s46 9 61 24s23 32 23 46v60h63v-64c0 -22 8 -38 22 -49s32 -17 53 -17s38 10 52 26s22 32 22 46v58h63v-63c0 -22 7 -38 22 -49s32 -18 51 -18h45v-80h-45c-46 0 -82 19 -110 56
c-25 -37 -61 -56 -104 -56c-33 0 -62 10 -86 30c-9 7 -15 14 -22 24c-26 -36 -61 -54 -103 -54c-64 0 -108 25 -134 78c-8 15 -15 33 -23 54c-20 50 -53 74 -98 74s-86 -8 -123 -22s-55 -33 -55 -55c0 -7 2 -12 8 -15c13 -7 40 -14 80 -25s66 -24 79 -38s20 -40 20 -75
c0 -58 -69 -105 -209 -139c-60 -14 -123 -22 -187 -22s-113 13 -147 41s-51 69 -51 124s23 123 68 202l53 -26c-6 -10 -11 -22 -19 -34c-25 -46 -39 -95 -39 -148s47 -78 138 -78z" />
    <glyph glyph-name="zad_ye.farsi.isol" unicode="&#xfebf;&#xfbfd;" horiz-adv-x="1391" 
d="M1132 444h-84v84h84v-84zM252 -104c70 0 128 4 174 13s78 16 96 22c40 13 60 29 60 45c0 9 -4 15 -14 21s-34 13 -74 24s-65 24 -79 38s-21 35 -21 58s3 42 10 56c20 41 58 71 114 92c36 13 71 21 104 21c55 0 97 -14 123 -42c18 -19 35 -50 51 -94s50 -68 96 -69
c80 108 147 180 201 216c42 29 77 43 107 43s54 -9 75 -25s37 -37 49 -61s18 -46 18 -67s-6 -43 -18 -66s-31 -44 -55 -62c-54 -40 -128 -59 -224 -59h-141c-67 0 -115 25 -146 78c-9 15 -16 33 -24 54c-20 50 -53 74 -98 74s-86 -8 -123 -22s-55 -33 -55 -55
c0 -7 2 -12 8 -15c13 -7 40 -14 80 -25s66 -24 79 -38s20 -40 20 -75c0 -58 -69 -105 -209 -139c-60 -14 -123 -22 -187 -22s-113 13 -147 41s-51 69 -51 124s23 123 68 202l53 -26c-6 -10 -11 -22 -19 -34c-25 -46 -39 -95 -39 -148s47 -78 138 -78zM1045 80
c75 0 133 11 174 33s60 46 60 76c0 14 -5 28 -14 39c-19 21 -37 30 -53 30s-35 -1 -54 -9s-38 -20 -58 -38s-39 -34 -55 -50s-38 -44 -67 -81h67z" />
    <glyph glyph-name="zad_ye.farsi.fina" unicode="&#xfec0;&#xfbfd;" horiz-adv-x="1413" 
d="M1132 444h-84v84h84v-84zM1032 78c76 0 133 11 174 32s60 46 60 76c0 14 -4 27 -13 38c-19 21 -37 32 -53 32c-28 0 -57 -9 -91 -30s-82 -71 -144 -148h67zM1289 86c14 -3 58 -6 127 -6v-80c-78 0 -128 3 -150 10s-41 13 -59 20c-53 -22 -111 -33 -175 -33h-141
c-63 0 -108 27 -134 81c-8 15 -15 33 -23 54c-20 50 -53 74 -98 74s-86 -8 -123 -22s-55 -33 -55 -55c0 -7 2 -12 8 -15c13 -7 40 -14 80 -25s66 -24 79 -38s20 -40 20 -75c0 -58 -69 -105 -209 -139c-60 -14 -123 -22 -187 -22s-113 13 -147 41s-51 69 -51 124
s23 123 68 202l53 -26c-6 -10 -11 -22 -19 -34c-25 -46 -39 -95 -39 -148s47 -78 138 -78c70 0 128 4 174 13s78 16 96 22c40 13 60 29 60 45c0 9 -4 15 -14 21s-34 13 -74 24s-65 24 -79 38s-21 35 -21 58s3 42 10 56c20 41 58 71 114 92c36 13 71 21 104 21
c55 0 97 -14 123 -42c18 -19 33 -44 45 -77s22 -52 30 -60c15 -16 35 -27 59 -28c79 106 147 179 201 216c41 29 80 43 115 43c50 0 87 -30 117 -89c11 -22 17 -43 17 -63c0 -34 -14 -67 -40 -100z" />
    <glyph glyph-name="mim_ye.farsi.isol" unicode="&#xfee3;&#xfbfd;" horiz-adv-x="1085" 
d="M683 37l-98 11c-25 0 -40 -6 -43 -18c66 -38 99 -74 99 -108c0 -18 -6 -31 -18 -42s-32 -23 -62 -36s-72 -24 -129 -34s-106 -15 -148 -15c-155 0 -233 58 -233 170c0 57 23 123 68 200l53 -24l-19 -33c-25 -47 -39 -97 -39 -149c0 -55 60 -83 179 -83c46 0 105 3 177 11
s108 17 108 29c0 8 -40 31 -120 71l23 64c9 26 21 46 40 59s37 20 53 20s27 -1 36 -2s18 -3 26 -4s16 -3 24 -4s18 -2 29 -2c28 0 47 8 59 22s23 30 36 46c47 60 87 90 118 90c32 0 60 -18 88 -54s41 -74 41 -114v-2c0 -78 -29 -117 -86 -117c-62 0 -116 26 -167 78
c-23 -20 -55 -30 -93 -30h-2zM945 69c15 0 23 11 23 34s-5 43 -15 57c-18 24 -33 36 -47 36h-1c-14 0 -34 -15 -59 -46c-8 -9 -15 -18 -23 -28c35 -35 75 -53 122 -53z" />
    <glyph glyph-name="mim_ye.farsi.fina" unicode="&#xfee4;&#xfbfd;" horiz-adv-x="1157" 
d="M801 119c32 -50 62 -73 95 -73c11 0 21 5 28 16s11 26 11 45s-5 36 -13 51s-16 25 -24 25c-24 0 -56 -22 -97 -64zM683 37l-98 11c-25 0 -40 -6 -43 -18c66 -38 99 -74 99 -108c0 -18 -6 -31 -18 -42s-32 -23 -62 -36s-72 -24 -129 -34s-106 -15 -148 -15
c-155 0 -233 58 -233 170c0 57 23 123 68 200l53 -24l-19 -33c-25 -47 -39 -97 -39 -149c0 -55 60 -83 179 -83c46 0 105 3 177 11s108 17 108 29c0 8 -40 31 -120 71l23 64c9 26 21 46 40 59s37 20 53 20s27 -1 36 -2s18 -3 26 -4s17 -3 25 -4s15 -2 24 -2s15 2 22 8
s21 19 42 42s46 44 72 65s49 31 71 31s46 -16 72 -48l67 -82c28 -35 69 -54 127 -54v-80c-50 0 -90 9 -120 29c-14 9 -29 23 -44 39c-14 -68 -47 -102 -98 -102s-97 34 -142 103c-22 -22 -46 -32 -69 -32h-2z" />
    <glyph glyph-name="uni0649_ye.farsi.tight.fina" unicode="&#xfbe9;&#xfbfd;" horiz-adv-x="906" 
d="M252 -104c70 0 128 4 174 13s78 16 96 22c40 13 60 29 60 45c0 9 -4 15 -14 21s-34 13 -74 24s-65 24 -79 38s-21 35 -21 58s3 42 10 56c20 41 58 71 114 92c37 13 72 21 104 21c55 0 97 -14 125 -40c18 -16 33 -41 48 -74s29 -54 39 -64c20 -19 44 -28 75 -28v-80
c-63 0 -110 26 -140 78c-9 14 -15 28 -21 40c-26 58 -64 88 -110 88s-88 -8 -125 -22s-55 -33 -55 -55c0 -7 2 -12 8 -15c13 -7 40 -14 80 -25s66 -24 79 -38s20 -40 20 -75c0 -58 -69 -105 -209 -139c-60 -14 -123 -22 -187 -22s-113 13 -147 41s-51 69 -51 124
s23 123 68 202l53 -26c-6 -10 -11 -22 -19 -34c-25 -46 -39 -95 -39 -148s47 -78 138 -78z" />
    <glyph glyph-name="nun_ye.farsi.fina" unicode="&#xfee8;&#xfbfd;" horiz-adv-x="939" 
d="M669 411h-84v84h84v-84zM252 -104c70 0 128 4 174 13s78 16 96 22c40 13 60 29 60 45c0 9 -4 15 -14 21s-34 13 -74 24s-65 24 -79 38s-21 35 -21 58s3 42 10 56c20 41 58 71 114 92c36 13 69 21 98 21s50 -3 65 -6c42 -9 76 -29 102 -60c9 -10 30 -39 62 -90
c22 -33 53 -50 95 -50h2v-80c-58 0 -105 24 -142 75c-10 14 -20 26 -28 38s-14 23 -22 34c-24 38 -66 59 -122 59c-41 0 -76 -7 -101 -17c-46 -19 -69 -37 -69 -55c0 -8 0 -12 1 -14c3 -7 28 -15 75 -28s78 -26 91 -41s20 -40 20 -75c0 -58 -69 -105 -209 -139
c-60 -14 -123 -22 -187 -22s-113 13 -147 41s-51 69 -51 124s23 123 68 202l53 -26c-6 -10 -11 -22 -19 -34c-25 -46 -39 -95 -39 -148s47 -78 138 -78z" />
    <glyph glyph-name="teh_ye.farsi.fina" unicode="&#xfe98;&#xfbfd;" horiz-adv-x="939" 
d="M607 411h-83v84h83v-84zM730 411h-83v84h83v-84zM252 -104c70 0 128 4 174 13s78 16 96 22c40 13 60 29 60 45c0 9 -4 15 -14 21s-34 13 -74 24s-65 24 -79 38s-21 35 -21 58s3 42 10 56c20 41 58 71 114 92c36 13 69 21 98 21s50 -3 65 -6c42 -9 76 -29 102 -60
c9 -10 30 -39 62 -90c22 -33 53 -50 95 -50h2v-80c-58 0 -105 24 -142 75c-10 14 -20 26 -28 38s-14 23 -22 34c-24 38 -66 59 -122 59c-41 0 -76 -7 -101 -17c-46 -19 -69 -37 -69 -55c0 -8 0 -12 1 -14c3 -7 28 -15 75 -28s78 -26 91 -41s20 -40 20 -75
c0 -58 -69 -105 -209 -139c-60 -14 -123 -22 -187 -22s-113 13 -147 41s-51 69 -51 124s23 123 68 202l53 -26c-6 -10 -11 -22 -19 -34c-25 -46 -39 -95 -39 -148s47 -78 138 -78z" />
    <glyph glyph-name="seh_ye.farsi.fina" unicode="&#xfe9c;&#xfbfd;" horiz-adv-x="939" 
d="M603 411h-84v84h84v-84zM734 411h-84v84h84v-84zM668 539h-84v84h84v-84zM252 -104c70 0 128 4 174 13s78 16 96 22c40 13 60 29 60 45c0 9 -4 15 -14 21s-34 13 -74 24s-65 24 -79 38s-21 35 -21 58s3 42 10 56c20 41 58 71 114 92c36 13 69 21 98 21s50 -3 65 -6
c42 -9 76 -29 102 -60c9 -10 30 -39 62 -90c22 -33 53 -50 95 -50h2v-80c-58 0 -105 24 -142 75c-10 14 -20 26 -28 38s-14 23 -22 34c-24 38 -66 59 -122 59c-41 0 -76 -7 -101 -17c-46 -19 -69 -37 -69 -55c0 -8 0 -12 1 -14c3 -7 28 -15 75 -28s78 -26 91 -41
s20 -40 20 -75c0 -58 -69 -105 -209 -139c-60 -14 -123 -22 -187 -22s-113 13 -147 41s-51 69 -51 124s23 123 68 202l53 -26c-6 -10 -11 -22 -19 -34c-25 -46 -39 -95 -39 -148s47 -78 138 -78z" />
    <glyph glyph-name="lam_ye.farsi.isol" unicode="&#xfedf;&#xfbfd;" horiz-adv-x="884" 
d="M580 130l55 -8h7c4 0 12 1 22 1s27 3 47 11s29 20 29 36v443h65v-441c0 -56 -31 -96 -94 -119c-21 -8 -43 -11 -67 -11l-64 6c-21 0 -34 -6 -38 -18c66 -38 99 -74 99 -108c0 -18 -6 -31 -18 -42s-32 -23 -62 -36s-72 -24 -129 -34s-106 -15 -148 -15
c-155 0 -233 58 -233 170c0 57 23 123 68 200l53 -24l-19 -33c-25 -47 -39 -97 -39 -149c0 -55 60 -83 179 -83c46 0 105 3 177 11s108 17 108 29c0 8 -40 31 -120 71c25 69 46 111 62 124s38 19 60 19z" />
    <glyph glyph-name="lam_ye.farsi.fina" unicode="&#xfee0;&#xfbfd;" horiz-adv-x="906" 
d="M114 -41c0 -55 60 -83 179 -83c46 0 105 3 177 11s108 17 108 29c0 8 -40 31 -120 71l23 64c9 26 21 46 39 59s38 20 60 20h62c24 0 40 4 49 13c16 16 25 42 25 77v393h64v-425c0 -36 9 -63 27 -81s52 -27 102 -27v-80c-43 1 -75 5 -95 13c-35 14 -62 34 -80 62
c-22 -18 -52 -27 -92 -27h-62c-21 0 -34 -6 -38 -18c66 -38 99 -74 99 -108c0 -18 -6 -31 -18 -42s-32 -23 -62 -36s-72 -24 -129 -34s-106 -15 -148 -15c-155 0 -233 58 -233 170c0 57 23 123 68 200l53 -24l-19 -33c-25 -47 -39 -97 -39 -149z" />
    <glyph glyph-name="beh_ye.farsi.fina" unicode="&#xfe92;&#xfbfd;" horiz-adv-x="939" 
d="M801 -194h-84v84h84v-84zM252 -104c70 0 128 4 174 13s78 16 96 22c40 13 60 29 60 45c0 9 -4 15 -14 21s-34 13 -74 24s-65 24 -79 38s-21 35 -21 58s3 42 10 56c20 41 58 71 114 92c36 13 69 21 98 21s50 -3 65 -6c42 -9 76 -29 102 -60c9 -10 30 -39 62 -90
c22 -33 53 -50 95 -50h2v-80c-58 0 -105 24 -142 75c-10 14 -20 26 -28 38s-14 23 -22 34c-24 38 -66 59 -122 59c-41 0 -76 -7 -101 -17c-46 -19 -69 -37 -69 -55c0 -8 0 -12 1 -14c3 -7 28 -15 75 -28s78 -26 91 -41s20 -40 20 -75c0 -58 -69 -105 -209 -139
c-60 -14 -123 -22 -187 -22s-113 13 -147 41s-51 69 -51 124s23 123 68 202l53 -26c-6 -10 -11 -22 -19 -34c-25 -46 -39 -95 -39 -148s47 -78 138 -78z" />
    <glyph glyph-name="uni0649_ye.farsi.fina" unicode="&#xfbe9;&#xfbfd;" horiz-adv-x="939" 
d="M252 -104c70 0 128 4 174 13s78 16 96 22c40 13 60 29 60 45c0 9 -4 15 -14 21s-34 13 -74 24s-65 24 -79 38s-21 35 -21 58s3 42 10 56c20 41 58 71 114 92c36 13 69 21 98 21s50 -3 65 -6c42 -9 76 -29 102 -60c9 -10 30 -39 62 -90c22 -33 53 -50 95 -50h2v-80
c-58 0 -105 24 -142 75c-10 14 -20 26 -28 38s-14 23 -22 34c-24 38 -66 59 -122 59c-41 0 -76 -7 -101 -17c-46 -19 -69 -37 -69 -55c0 -8 0 -12 1 -14c3 -7 28 -15 75 -28s78 -26 91 -41s20 -40 20 -75c0 -58 -69 -105 -209 -139c-60 -14 -123 -22 -187 -22
s-113 13 -147 41s-51 69 -51 124s23 123 68 202l53 -26c-6 -10 -11 -22 -19 -34c-25 -46 -39 -95 -39 -148s47 -78 138 -78z" />
    <glyph glyph-name="ye.farsi_ye.farsi.fina" unicode="&#xfbff;&#xfbfd;" horiz-adv-x="939" 
d="M739 -194h-83v84h83v-84zM862 -194h-83v84h83v-84zM252 -104c70 0 128 4 174 13s78 16 96 22c40 13 60 29 60 45c0 9 -4 15 -14 21s-34 13 -74 24s-65 24 -79 38s-21 35 -21 58s3 42 10 56c20 41 58 71 114 92c36 13 69 21 98 21s50 -3 65 -6c42 -9 76 -29 102 -60
c9 -10 30 -39 62 -90c22 -33 53 -50 95 -50h2v-80c-58 0 -105 24 -142 75c-10 14 -20 26 -28 38s-14 23 -22 34c-24 38 -66 59 -122 59c-41 0 -76 -7 -101 -17c-46 -19 -69 -37 -69 -55c0 -8 0 -12 1 -14c3 -7 28 -15 75 -28s78 -26 91 -41s20 -40 20 -75
c0 -58 -69 -105 -209 -139c-60 -14 -123 -22 -187 -22s-113 13 -147 41s-51 69 -51 124s23 123 68 202l53 -26c-6 -10 -11 -22 -19 -34c-25 -46 -39 -95 -39 -148s47 -78 138 -78z" />
    <glyph glyph-name="peh_ye.farsi.fina" unicode="&#xfb59;&#xfbfd;" horiz-adv-x="939" 
d="M735 -177h-84v85h84v-85zM866 -177h-84v85h84v-85zM800 -305h-84v84h84v-84zM252 -104c70 0 128 4 174 13s78 16 96 22c40 13 60 29 60 45c0 9 -4 15 -14 21s-34 13 -74 24s-65 24 -79 38s-21 35 -21 58s3 42 10 56c20 41 58 71 114 92c36 13 69 21 98 21s50 -3 65 -6
c42 -9 76 -29 102 -60c9 -10 30 -39 62 -90c22 -33 53 -50 95 -50h2v-80c-58 0 -105 24 -142 75c-10 14 -20 26 -28 38s-14 23 -22 34c-24 38 -66 59 -122 59c-41 0 -76 -7 -101 -17c-46 -19 -69 -37 -69 -55c0 -8 0 -12 1 -14c3 -7 28 -15 75 -28s78 -26 91 -41
s20 -40 20 -75c0 -58 -69 -105 -209 -139c-60 -14 -123 -22 -187 -22s-113 13 -147 41s-51 69 -51 124s23 123 68 202l53 -26c-6 -10 -11 -22 -19 -34c-25 -46 -39 -95 -39 -148s47 -78 138 -78z" />
    <glyph glyph-name="uni0649_ye.farsi.isol" unicode="&#xfbe8;&#xfbfd;" horiz-adv-x="988" 
d="M114 -41c0 -55 60 -83 179 -83c46 0 105 3 177 11s108 17 108 29c0 8 -40 31 -120 71l23 64c18 53 52 79 104 79c14 0 40 -3 76 -11s66 -15 89 -19s40 -6 50 -6s21 3 34 7s24 12 31 24s9 22 9 30c0 20 -19 67 -56 142l55 36c42 -84 64 -144 64 -180s-15 -68 -41 -97
s-57 -43 -97 -43c-6 0 -15 1 -26 3s-25 5 -44 8s-44 7 -77 14s-55 10 -66 10c-26 0 -41 -6 -44 -18c66 -38 99 -74 99 -108c0 -18 -6 -31 -18 -42s-32 -23 -62 -36s-72 -24 -129 -34s-106 -15 -148 -15c-155 0 -233 58 -233 170c0 57 23 123 68 200l53 -24l-19 -33
c-25 -47 -39 -97 -39 -149z" />
    <glyph glyph-name="nun_ye.farsi.isol" unicode="&#xfee7;&#xfbfd;" horiz-adv-x="988" 
d="M751 411h-83v84h83v-84zM114 -41c0 -55 60 -83 179 -83c46 0 105 3 177 11s108 17 108 29c0 8 -40 31 -120 71l23 64c18 53 52 79 104 79c14 0 40 -3 76 -11s66 -15 89 -19s40 -6 50 -6s21 3 34 7s24 12 31 24s9 22 9 30c0 20 -19 67 -56 142l55 36
c42 -84 64 -144 64 -180s-15 -68 -41 -97s-57 -43 -97 -43c-6 0 -15 1 -26 3s-25 5 -44 8s-44 7 -77 14s-55 10 -66 10c-26 0 -41 -6 -44 -18c66 -38 99 -74 99 -108c0 -18 -6 -31 -18 -42s-32 -23 -62 -36s-72 -24 -129 -34s-106 -15 -148 -15c-155 0 -233 58 -233 170
c0 57 23 123 68 200l53 -24l-19 -33c-25 -47 -39 -97 -39 -149z" />
    <glyph glyph-name="teh_ye.farsi.isol" unicode="&#xfe97;&#xfbfd;" horiz-adv-x="988" 
d="M690 411h-84v84h84v-84zM813 411h-84v84h84v-84zM114 -41c0 -55 60 -83 179 -83c46 0 105 3 177 11s108 17 108 29c0 8 -40 31 -120 71l23 64c18 53 52 79 104 79c14 0 40 -3 76 -11s66 -15 89 -19s40 -6 50 -6s21 3 34 7s24 12 31 24s9 22 9 30c0 20 -19 67 -56 142
l55 36c42 -84 64 -144 64 -180s-15 -68 -41 -97s-57 -43 -97 -43c-6 0 -15 1 -26 3s-25 5 -44 8s-44 7 -77 14s-55 10 -66 10c-26 0 -41 -6 -44 -18c66 -38 99 -74 99 -108c0 -18 -6 -31 -18 -42s-32 -23 -62 -36s-72 -24 -129 -34s-106 -15 -148 -15
c-155 0 -233 58 -233 170c0 57 23 123 68 200l53 -24l-19 -33c-25 -47 -39 -97 -39 -149z" />
    <glyph glyph-name="seh_ye.farsi.isol" unicode="&#xfe9b;&#xfbfd;" horiz-adv-x="988" 
d="M685 411h-83v84h83v-84zM816 411h-83v84h83v-84zM750 539h-83v84h83v-84zM114 -41c0 -55 60 -83 179 -83c46 0 105 3 177 11s108 17 108 29c0 8 -40 31 -120 71l23 64c18 53 52 79 104 79c14 0 40 -3 76 -11s66 -15 89 -19s40 -6 50 -6s21 3 34 7s24 12 31 24s9 22 9 30
c0 20 -19 67 -56 142l55 36c42 -84 64 -144 64 -180s-15 -68 -41 -97s-57 -43 -97 -43c-6 0 -15 1 -26 3s-25 5 -44 8s-44 7 -77 14s-55 10 -66 10c-26 0 -41 -6 -44 -18c66 -38 99 -74 99 -108c0 -18 -6 -31 -18 -42s-32 -23 -62 -36s-72 -24 -129 -34s-106 -15 -148 -15
c-155 0 -233 58 -233 170c0 57 23 123 68 200l53 -24l-19 -33c-25 -47 -39 -97 -39 -149z" />
    <glyph glyph-name="beh_ye.farsi.isol" unicode="&#xfe91;&#xfbfd;" horiz-adv-x="988" 
d="M864 -194h-84v84h84v-84zM114 -41c0 -55 60 -83 179 -83c46 0 105 3 177 11s108 17 108 29c0 8 -40 31 -120 71l23 64c18 53 52 79 104 79c14 0 40 -3 76 -11s66 -15 89 -19s40 -6 50 -6s21 3 34 7s24 12 31 24s9 22 9 30c0 20 -19 67 -56 142l55 36
c42 -84 64 -144 64 -180s-15 -68 -41 -97s-57 -43 -97 -43c-6 0 -15 1 -26 3s-25 5 -44 8s-44 7 -77 14s-55 10 -66 10c-26 0 -41 -6 -44 -18c66 -38 99 -74 99 -108c0 -18 -6 -31 -18 -42s-32 -23 -62 -36s-72 -24 -129 -34s-106 -15 -148 -15c-155 0 -233 58 -233 170
c0 57 23 123 68 200l53 -24l-19 -33c-25 -47 -39 -97 -39 -149z" />
    <glyph glyph-name="ye.farsi_ye.farsi.isol" unicode="&#xfbfe;&#xfbfd;" horiz-adv-x="988" 
d="M802 -194h-84v84h84v-84zM925 -194h-83v84h83v-84zM114 -41c0 -55 60 -83 179 -83c46 0 105 3 177 11s108 17 108 29c0 8 -40 31 -120 71l23 64c18 53 52 79 104 79c14 0 40 -3 76 -11s66 -15 89 -19s40 -6 50 -6s21 3 34 7s24 12 31 24s9 22 9 30c0 20 -19 67 -56 142
l55 36c42 -84 64 -144 64 -180s-15 -68 -41 -97s-57 -43 -97 -43c-6 0 -15 1 -26 3s-25 5 -44 8s-44 7 -77 14s-55 10 -66 10c-26 0 -41 -6 -44 -18c66 -38 99 -74 99 -108c0 -18 -6 -31 -18 -42s-32 -23 -62 -36s-72 -24 -129 -34s-106 -15 -148 -15
c-155 0 -233 58 -233 170c0 57 23 123 68 200l53 -24l-19 -33c-25 -47 -39 -97 -39 -149z" />
    <glyph glyph-name="peh_ye.farsi.isol" unicode="&#xfb58;&#xfbfd;" horiz-adv-x="988" 
d="M798 -177h-84v85h84v-85zM928 -177h-83v85h83v-85zM862 -305h-83v84h83v-84zM114 -41c0 -55 60 -83 179 -83c46 0 105 3 177 11s108 17 108 29c0 8 -40 31 -120 71l23 64c18 53 52 79 104 79c14 0 40 -3 76 -11s66 -15 89 -19s40 -6 50 -6s21 3 34 7s24 12 31 24
s9 22 9 30c0 20 -19 67 -56 142l55 36c42 -84 64 -144 64 -180s-15 -68 -41 -97s-57 -43 -97 -43c-6 0 -15 1 -26 3s-25 5 -44 8s-44 7 -77 14s-55 10 -66 10c-26 0 -41 -6 -44 -18c66 -38 99 -74 99 -108c0 -18 -6 -31 -18 -42s-32 -23 -62 -36s-72 -24 -129 -34
s-106 -15 -148 -15c-155 0 -233 58 -233 170c0 57 23 123 68 200l53 -24l-19 -33c-25 -47 -39 -97 -39 -149z" />
    <glyph glyph-name="lam_uni0671.isol" unicode="&#xfedf;&#xfb51;" horiz-adv-x="603" 
d="M132 563c30 2 55 9 75 17c43 19 65 37 65 57c0 13 -14 20 -39 20c-36 0 -69 -32 -101 -94zM70 526c-3 3 -7 8 -11 11s-7 5 -14 5s-13 -4 -20 -12l-32 35c16 22 34 32 55 32c9 0 16 -2 22 -6s12 -9 19 -15c15 35 32 63 52 85c30 33 59 50 85 50c59 0 88 -25 88 -73
c0 -36 -23 -67 -69 -92s-82 -38 -111 -38h-1c-29 0 -50 6 -63 18zM210 20c31 10 56 17 75 24c-8 91 -23 168 -46 227s-60 108 -107 146l40 64c99 -79 158 -217 177 -415c41 16 67 30 81 41c26 21 41 43 41 65v441h64v-441c0 -55 -25 -101 -76 -136c-41 -29 -97 -52 -166 -73
l-64 -21z" />
    <glyph glyph-name="lam_uni0671.fina" unicode="&#xfee0;&#xfb51;" horiz-adv-x="660" 
d="M132 563c30 2 55 9 75 17c43 19 65 37 65 57c0 13 -14 20 -39 20c-36 0 -69 -32 -101 -94zM70 526c-3 3 -7 8 -11 11s-7 5 -14 5s-13 -4 -20 -12l-32 35c16 22 34 32 55 32c9 0 16 -2 22 -6s12 -9 19 -15c15 35 32 63 52 85c30 33 59 50 85 50c59 0 88 -25 88 -73
c0 -36 -23 -67 -69 -92s-82 -38 -111 -38h-1c-29 0 -50 6 -63 18zM183 24l119 22c-8 84 -20 148 -36 192s-34 80 -54 111c-21 31 -46 59 -78 84l39 64c92 -76 151 -181 176 -315c8 -38 13 -78 17 -116c68 26 103 62 103 106v441h65v-441c0 -35 9 -59 28 -72s52 -20 99 -20
v-80c-48 0 -81 3 -100 10s-33 14 -44 22c-10 8 -17 19 -25 31c-44 -51 -113 -85 -205 -101l-95 -17z" />
    <glyph glyph-name="kaf.farsi_ye.farsi.isol" unicode="&#xfb90;&#xfbfd;" horiz-adv-x="1129" 
d="M114 -41c0 -55 60 -83 179 -83c46 0 105 3 177 11s108 17 108 29c0 8 -40 31 -120 71l23 64c18 53 52 79 104 79c14 0 50 -6 105 -18s86 -18 94 -18h12c43 0 77 8 105 26c13 9 21 22 21 38c0 32 -18 65 -55 97c-25 23 -72 52 -137 87l11 108c96 65 186 117 268 158
c29 14 56 26 80 34l22 -77c-87 -32 -193 -89 -317 -171c62 -36 105 -68 128 -93c44 -48 65 -92 65 -135s-11 -73 -33 -94s-47 -37 -76 -46s-50 -13 -65 -13s-29 1 -40 3s-25 5 -44 8s-44 7 -77 14s-55 10 -66 10c-26 0 -41 -6 -44 -18c66 -38 99 -74 99 -108
c0 -18 -6 -31 -18 -42s-32 -23 -62 -36s-72 -24 -129 -34s-106 -15 -148 -15c-155 0 -233 58 -233 170c0 57 23 123 68 200l53 -24l-19 -33c-25 -47 -39 -97 -39 -149z" />
    <glyph glyph-name="kaf.farsi_ye.farsi.fina" unicode="&#xfb91;&#xfbfd;" horiz-adv-x="1183" 
d="M114 -41c0 -55 60 -83 179 -83c46 0 105 3 177 11s108 17 108 29c0 8 -40 31 -120 71l23 64c18 53 52 79 104 79c14 0 50 -6 105 -18s86 -18 94 -18h12c43 0 77 8 105 26c13 9 21 22 21 38c0 32 -18 65 -55 97c-25 23 -72 52 -137 87l11 108c96 65 186 117 268 158
c29 14 56 26 80 34l22 -77c-53 -20 -104 -42 -152 -70s-103 -61 -165 -101c65 -38 111 -69 139 -92c73 -58 121 -110 144 -155s60 -67 108 -67v-80c-73 0 -127 37 -164 111c-6 11 -12 21 -18 28s-10 14 -16 22c0 -51 -24 -91 -71 -117c-35 -20 -74 -31 -117 -31
c-6 0 -15 1 -26 3s-25 5 -44 8s-44 7 -77 14s-55 10 -66 10c-26 0 -41 -6 -44 -18c66 -38 99 -74 99 -108c0 -18 -6 -31 -18 -42s-32 -23 -62 -36s-72 -24 -129 -34s-106 -15 -148 -15c-155 0 -233 58 -233 170c0 57 23 123 68 200l53 -24l-19 -33c-25 -47 -39 -97 -39 -149
z" />
    <glyph glyph-name="gaf_ye.farsi.isol" unicode="&#xfb94;&#xfbfd;" horiz-adv-x="1129" 
d="M114 -41c0 -55 60 -83 179 -83c46 0 105 3 177 11s108 17 108 29c0 8 -40 31 -120 71l23 64c18 53 52 79 104 79c14 0 50 -6 105 -18s86 -18 94 -18h12c81 3 122 25 122 63c0 16 -5 34 -15 49c-18 26 -50 53 -102 83c-23 13 -48 28 -74 42l8 101c78 43 168 83 270 118
c28 10 51 17 70 21l14 -79c-42 -10 -94 -29 -157 -55s-106 -47 -130 -59c63 -35 103 -62 123 -84c40 -42 59 -85 59 -126s-10 -72 -31 -94s-45 -37 -75 -46s-52 -15 -66 -15s-28 1 -39 3s-25 5 -44 8s-44 7 -77 14s-55 10 -66 10c-26 0 -41 -6 -44 -18
c66 -38 99 -74 99 -108c0 -18 -6 -31 -18 -42s-32 -23 -62 -36s-72 -24 -129 -34s-106 -15 -148 -15c-155 0 -233 58 -233 170c0 57 23 123 68 200l53 -24l-19 -33c-25 -47 -39 -97 -39 -149zM1092 629c-118 -38 -226 -82 -324 -130l-18 51c112 53 221 97 329 132z" />
    <glyph glyph-name="gaf_ye.farsi.fina" unicode="&#xfb95;&#xfbfd;" horiz-adv-x="1183" 
d="M1092 629c-118 -38 -226 -82 -324 -130l-18 51c112 53 221 97 329 132zM114 -41c0 -55 60 -83 179 -83c46 0 105 3 177 11s108 17 108 29c0 8 -40 31 -120 71l23 64c18 53 52 79 104 79c14 0 50 -6 105 -18s86 -18 94 -18h12c81 3 122 25 122 63c0 16 -5 34 -15 49
c-18 26 -50 53 -102 83c-23 13 -48 28 -74 42l8 101c78 43 168 83 270 118c28 10 51 17 70 21l14 -79c-42 -10 -94 -29 -157 -55s-106 -47 -130 -59c144 -84 232 -156 264 -215c15 -29 31 -50 49 -63s41 -20 70 -20v-80c-60 0 -109 25 -144 73c-10 13 -20 29 -28 44
s-16 30 -27 43c0 -52 -25 -91 -71 -117c-35 -20 -73 -30 -116 -30c-6 0 -15 1 -26 3s-25 5 -44 8s-44 7 -77 14s-55 10 -66 10c-26 0 -41 -6 -44 -18c66 -38 99 -74 99 -108c0 -18 -6 -31 -18 -42s-32 -23 -62 -36s-72 -24 -129 -34s-106 -15 -148 -15
c-155 0 -233 58 -233 170c0 57 23 123 68 200l53 -24l-19 -33c-25 -47 -39 -97 -39 -149z" />
    <glyph glyph-name="ye.hamze_ye.farsi.isol" unicode="&#xfe8b;&#xfbfd;" horiz-adv-x="988" 
d="M657 459c-24 21 -35 43 -35 67s9 46 31 68s44 32 67 32l2 1c23 0 43 -8 63 -27c6 -6 11 -12 17 -19l-32 -35c-3 4 -7 8 -14 16s-17 11 -29 11s-20 -1 -27 -4c-23 -11 -36 -25 -36 -43c0 -12 18 -27 54 -42c18 6 35 10 50 13s31 6 45 10l9 -54c-15 -3 -29 -7 -42 -9
c-37 -7 -93 -27 -165 -63l-19 50c31 15 52 24 61 28zM114 -41c0 -55 60 -83 179 -83c46 0 105 3 177 11s108 17 108 29c0 8 -40 31 -120 71l23 64c18 53 52 79 104 79c14 0 40 -3 76 -11s66 -15 89 -19s40 -6 50 -6s21 3 34 7s24 12 31 24s9 22 9 30c0 20 -19 67 -56 142
l55 36c42 -84 64 -144 64 -180s-15 -68 -41 -97s-57 -43 -97 -43c-6 0 -15 1 -26 3s-25 5 -44 8s-44 7 -77 14s-55 10 -66 10c-26 0 -41 -6 -44 -18c66 -38 99 -74 99 -108c0 -18 -6 -31 -18 -42s-32 -23 -62 -36s-72 -24 -129 -34s-106 -15 -148 -15
c-155 0 -233 58 -233 170c0 57 23 123 68 200l53 -24l-19 -33c-25 -47 -39 -97 -39 -149z" />
    <glyph glyph-name="ye.hamze_ye.farsi.fina" unicode="&#xfe8c;&#xfbfd;" horiz-adv-x="939" 
d="M574 459c-24 21 -35 43 -35 67s10 46 32 68s44 32 67 32l1 1c23 0 44 -8 64 -27c6 -6 10 -12 16 -19l-31 -35c-3 4 -8 8 -15 16s-16 11 -28 11s-21 -1 -28 -4c-23 -11 -35 -25 -35 -43c0 -12 18 -27 54 -42c18 6 34 10 49 13s31 6 45 10l9 -54c-15 -3 -29 -7 -42 -9
c-37 -7 -93 -27 -165 -63l-18 50c31 15 51 24 60 28zM252 -104c70 0 128 4 174 13s78 16 96 22c40 13 60 29 60 45c0 9 -4 15 -14 21s-34 13 -74 24s-65 24 -79 38s-21 35 -21 58s3 42 10 56c20 41 58 71 114 92c36 13 69 21 98 21s50 -3 65 -6c42 -9 76 -29 102 -60
c9 -10 30 -39 62 -90c22 -33 53 -50 95 -50h2v-80c-58 0 -105 24 -142 75c-10 14 -20 26 -28 38s-14 23 -22 34c-24 38 -66 59 -122 59c-41 0 -76 -7 -101 -17c-46 -19 -69 -37 -69 -55c0 -8 0 -12 1 -14c3 -7 28 -15 75 -28s78 -26 91 -41s20 -40 20 -75
c0 -58 -69 -105 -209 -139c-60 -14 -123 -22 -187 -22s-113 13 -147 41s-51 69 -51 124s23 123 68 202l53 -26c-6 -10 -11 -22 -19 -34c-25 -46 -39 -95 -39 -148s47 -78 138 -78z" />
    <glyph glyph-name="uniFB50" unicode="&#x671;" horiz-adv-x="300" arabic-form="isolated" 
d="M184 0h-65v463h65v-463zM132 563c30 2 55 9 75 17c43 19 65 37 65 57c0 13 -14 20 -39 20c-36 0 -69 -32 -101 -94zM70 526c-3 3 -7 8 -11 11s-7 5 -14 5s-13 -4 -20 -12l-32 35c16 22 34 32 55 32c9 0 16 -2 22 -6s12 -9 19 -15c15 35 32 63 52 85c30 33 59 50 85 50
c59 0 88 -25 88 -73c0 -36 -23 -67 -69 -92s-82 -38 -111 -38h-1c-29 0 -50 6 -63 18z" />
    <glyph glyph-name="uniFB51" unicode="&#x671;" horiz-adv-x="327" arabic-form="final" 
d="M132 563c30 2 55 9 75 17c43 19 65 37 65 57c0 13 -14 20 -39 20c-36 0 -69 -32 -101 -94zM70 526c-3 3 -7 8 -11 11s-7 5 -14 5s-13 -4 -20 -12l-32 35c16 22 34 32 55 32c9 0 16 -2 22 -6s12 -9 19 -15c15 35 32 63 52 85c30 33 59 50 85 50c59 0 88 -25 88 -73
c0 -36 -23 -67 -69 -92s-82 -38 -111 -38h-1c-29 0 -50 6 -63 18zM330 0h-51c-87 0 -139 27 -153 82c-6 19 -7 43 -7 68v313h65v-313c0 -24 8 -42 21 -53s36 -17 69 -17h56v-80z" />
    <glyph glyph-name="uniFB56" unicode="&#x67e;" horiz-adv-x="926" arabic-form="isolated" 
d="M420 -177h-83v85h83v-85zM551 -177h-83v85h83v-85zM485 -305h-83v84h83v-84zM836 323c25 -77 38 -133 38 -168s-8 -61 -23 -74c-24 -23 -92 -45 -205 -66s-200 -30 -263 -30s-114 2 -149 9c-118 22 -177 75 -177 159c0 47 14 104 39 171l65 -13c-3 -12 -11 -36 -22 -68
s-17 -62 -17 -91s21 -50 63 -65s96 -22 164 -22c114 0 235 14 365 45c44 10 70 19 80 23s14 9 14 13c0 34 -13 92 -39 172z" />
    <glyph glyph-name="pe.fina" unicode="&#x67e;" horiz-adv-x="980" arabic-form="final" 
d="M420 -177h-83v85h83v-85zM551 -177h-83v85h83v-85zM485 -305h-83v84h83v-84zM982 0c-94 0 -152 25 -175 73c-36 -31 -124 -55 -266 -75c-62 -9 -105 -13 -133 -13h-43c-97 0 -172 12 -226 40s-82 71 -82 127c0 48 14 105 39 172l65 -13c-4 -12 -11 -35 -22 -67
s-17 -62 -17 -91s21 -51 63 -66s97 -22 169 -22s154 8 249 23s152 35 173 59c14 18 24 35 30 53s11 32 14 43l7 22l57 -22c-16 -58 -25 -93 -25 -103c0 -20 10 -34 28 -44s50 -16 95 -16v-80z" />
    <glyph glyph-name="pe.init" unicode="&#x67e;" horiz-adv-x="293" arabic-form="initial" 
d="M84 -177h-84v85h84v-85zM214 -177h-83v85h83v-85zM148 -305h-83v84h83v-84zM184 315c25 -77 37 -134 37 -174s-18 -72 -53 -100s-79 -41 -134 -41h-34c-10 0 -20 3 -30 6v74h64c36 0 62 5 78 14s28 16 34 23s9 14 9 22c0 32 -13 89 -38 170z" />
    <glyph glyph-name="pe.medi" unicode="&#x67e;" horiz-adv-x="293" arabic-form="medial" 
d="M84 -177h-84v85h84v-85zM214 -177h-83v85h83v-85zM148 -305h-83v84h83v-84zM145 46c-28 -31 -72 -46 -131 -46h-14c-10 0 -20 3 -30 6v74h44c35 0 62 7 78 20s26 29 26 50v93h64v-93c0 -23 9 -42 24 -53s45 -17 90 -17v-80c-78 0 -129 15 -151 46z" />
    <glyph glyph-name="uniFB6A" unicode="&#x6a4;" horiz-adv-x="884" arabic-form="isolated" 
d="M666 516h-84v84h84v-84zM796 516h-83v84h83v-84zM730 644h-83v83h83v-83zM638 263c0 -12 25 -19 73 -19h18c11 0 26 3 44 11c-10 48 -33 81 -67 96c-9 4 -16 7 -24 7s-12 -3 -18 -10c-16 -22 -25 -50 -26 -85zM711 163c-92 0 -138 34 -138 100c0 38 8 72 24 103
c25 47 53 71 83 71c37 0 71 -16 102 -49c38 -40 57 -90 57 -153c0 -100 -14 -161 -43 -184s-85 -40 -170 -51s-162 -15 -230 -15h-55c-35 0 -72 2 -107 9c-118 22 -177 75 -177 159c0 47 14 104 39 171l65 -13c-4 -12 -11 -35 -22 -67s-17 -62 -17 -91s21 -51 63 -66
s93 -22 155 -22c191 0 326 15 404 45c14 8 24 28 28 63c-16 -7 -37 -10 -61 -10z" />
    <glyph glyph-name="uniFB6B" unicode="&#x6a4;" horiz-adv-x="884" arabic-form="final" 
d="M689 483h-84v83h84v-83zM820 483h-84v83h84v-83zM754 610h-84v84h84v-84zM122 154c0 -59 81 -89 244 -89c80 0 164 11 251 33c-23 26 -35 60 -35 104s26 86 79 124c23 16 45 25 68 25s45 -14 67 -44s33 -63 33 -100s-20 -75 -58 -112c40 -10 79 -15 116 -15v-80
c-73 0 -139 14 -195 43c-87 -38 -201 -58 -343 -58h-4c-84 0 -152 12 -206 40s-82 71 -82 127c0 48 14 105 39 172l65 -13c-4 -12 -11 -36 -22 -68s-17 -61 -17 -89zM694 130c47 29 70 54 70 78c0 15 -4 30 -13 43s-16 21 -25 21c-18 0 -35 -10 -53 -26s-26 -31 -26 -46
s3 -28 11 -38s20 -21 36 -32z" />
    <glyph glyph-name="uniFB6C" unicode="&#x6a4;" horiz-adv-x="374" arabic-form="initial" 
d="M155 515h-83v83h83v-83zM286 515h-84v83h84v-83zM220 642h-84v84h84v-84zM197 162c-92 0 -139 34 -139 100c0 40 11 78 32 116s47 58 80 58s68 -18 103 -54s51 -88 51 -155c0 -96 -12 -155 -41 -177c-43 -33 -127 -50 -255 -50h-28c-10 0 -20 3 -30 6v74h58
c74 0 125 4 156 12s48 16 52 20s10 10 13 17s6 21 9 43c-18 -7 -38 -10 -61 -10zM122 262c0 -12 25 -19 75 -19c23 0 42 4 61 12c-10 48 -31 80 -66 95c-9 4 -17 6 -24 6s-12 -2 -15 -6c-20 -24 -31 -53 -31 -88z" />
    <glyph glyph-name="uniFB6D" unicode="&#x6a4;" horiz-adv-x="374" arabic-form="medial" 
d="M167 483h-83v83h83v-83zM298 483h-84v83h84v-83zM232 610h-84v84h84v-84zM187 125c43 25 64 54 64 84c0 13 -4 27 -13 41s-19 21 -28 21c-16 0 -32 -10 -50 -25s-28 -32 -28 -47s5 -27 14 -38s22 -24 41 -36zM258 95c38 -9 77 -15 118 -15v-80c-75 0 -139 14 -194 40
c-53 -26 -106 -40 -161 -40h-21c-10 0 -20 3 -30 6v74h51c30 0 58 4 87 12c-28 29 -41 63 -41 100s17 74 50 108s64 51 90 51s51 -14 73 -43c23 -30 35 -64 35 -102c0 -37 -20 -75 -57 -111z" />
    <glyph glyph-name="uniFB7A" unicode="&#x686;" horiz-adv-x="631" arabic-form="isolated" 
d="M336 48h-76v75h76v-75zM452 48h-75v75h75v-75zM394 -66h-75v75h75v-75zM58 16c0 114 86 202 256 264l-108 60c-18 8 -29 12 -36 12s-10 -2 -16 -9l-57 -63l-39 39l49 78c3 4 7 9 10 13s10 9 19 15s22 8 36 8s35 -8 63 -22l139 -74c25 -12 59 -18 100 -18
c11 0 21 -1 30 -1h60v-80h-54c-72 0 -146 -16 -223 -47c-108 -43 -162 -98 -162 -170s32 -119 98 -141c25 -9 57 -13 91 -13c86 0 158 8 217 26l17 -67c-77 -26 -155 -39 -234 -39h-2c-133 0 -215 51 -244 153c-8 24 -10 50 -10 76z" />
    <glyph glyph-name="che.fina" unicode="&#x686;" horiz-adv-x="631" arabic-form="final" 
d="M302 41h-75v75h75v-75zM419 41h-75v75h75v-75zM361 -74h-75v75h75v-75zM58 16c0 114 86 202 256 264l-108 60c-18 8 -29 12 -36 12s-10 -2 -16 -9l-57 -63l-39 39l49 78c3 4 7 9 10 13s10 9 19 15s22 8 36 8s35 -8 63 -22l139 -74c25 -12 59 -18 100 -18
c11 0 21 -1 30 -1h60v-80h-65l30 -83c8 -23 18 -40 29 -49c20 -16 45 -26 76 -26v-80c-69 0 -118 26 -144 80c-8 16 -14 35 -20 55l-27 96c-163 -28 -263 -77 -303 -147c-10 -18 -16 -38 -16 -60c1 -104 67 -157 197 -157c81 0 151 8 210 26l17 -67
c-77 -26 -155 -39 -234 -39h-2c-133 0 -215 51 -244 153c-8 24 -10 50 -10 76z" />
    <glyph glyph-name="che.init" unicode="&#x686;" horiz-adv-x="631" arabic-form="initial" 
d="M185 -177h-84v85h84v-85zM316 -177h-84v85h84v-85zM250 -305h-84v84h84v-84zM573 148h-52c-28 0 -54 -9 -77 -25c-63 -50 -116 -82 -160 -98s-77 -25 -102 -25h-182c-10 0 -20 3 -30 6v74h212c45 0 97 21 161 62c15 10 29 18 38 26c-3 2 -9 4 -13 6s-7 4 -10 6l-146 84
c-16 9 -28 13 -36 13s-14 -4 -22 -12l-55 -58l-41 38l53 77c18 23 42 36 74 36c15 0 36 -7 59 -22l144 -85c26 -13 54 -20 82 -21s51 -1 73 -1h30v-81z" />
    <glyph glyph-name="che.medi" unicode="&#x686;" horiz-adv-x="644" arabic-form="medial" 
d="M185 -177h-84v85h84v-85zM316 -177h-84v85h84v-85zM250 -305h-84v84h84v-84zM647 0c-67 0 -115 8 -140 21s-46 42 -60 85l-6 16c-68 -51 -121 -83 -161 -98s-73 -24 -102 -24h-178c-10 0 -20 3 -30 6v74h208c45 0 99 21 163 62c15 10 27 18 36 26c-3 2 -8 4 -12 6
s-8 4 -10 6l-145 84c-16 9 -29 13 -37 13s-14 -4 -21 -12l-55 -58l-41 38l52 77c16 23 42 36 74 36c15 0 35 -7 59 -22l145 -85c26 -13 54 -20 82 -21s51 -1 73 -1h30v-81h-53c-4 0 -8 -1 -12 -1s-8 -1 -11 -1l5 -11c10 -21 25 -35 46 -43s54 -12 101 -12v-80z" />
    <glyph glyph-name="uniFB8A" unicode="&#x698;" horiz-adv-x="451" arabic-form="isolated" 
d="M219 411h-84v84h84v-84zM350 411h-84v84h84v-84zM284 539h-84v84h84v-84zM34 -156c154 56 249 116 283 179c8 13 11 30 11 51s-5 48 -16 81s-22 56 -33 69l52 50c25 -32 45 -83 58 -151c4 -20 6 -39 6 -59c0 -38 -17 -79 -51 -120c-57 -70 -154 -130 -289 -177z" />
    <glyph glyph-name="je.fina" unicode="&#x698;" horiz-adv-x="526" arabic-form="final" 
d="M219 411h-84v84h84v-84zM350 411h-84v84h84v-84zM284 539h-84v84h84v-84zM527 0c-58 0 -102 10 -131 32c-15 -81 -102 -158 -262 -230c-24 -11 -47 -21 -70 -31l-28 72c22 11 45 21 68 32c89 41 150 77 183 109s49 63 49 95c0 58 -9 110 -27 152l63 24l26 -93
c9 -29 19 -47 30 -56c22 -16 55 -26 99 -26v-80z" />
    <glyph glyph-name="uniFB8E" unicode="&#x6a9;" horiz-adv-x="926" arabic-form="isolated" 
d="M785 155c0 -114 -144 -170 -436 -170h-4c-84 0 -152 12 -206 40s-82 71 -82 127c0 48 14 105 39 172l65 -13c-4 -12 -11 -35 -22 -67s-17 -62 -17 -91s21 -51 63 -66s96 -22 164 -22c248 0 370 30 370 90c0 48 -38 96 -116 143c-23 14 -49 30 -75 44l11 108
c91 62 180 114 267 158c29 14 56 26 81 34l21 -77c-85 -32 -190 -89 -315 -171c62 -36 103 -67 126 -92s41 -49 51 -72s15 -47 15 -75z" />
    <glyph glyph-name="kaf.fina" unicode="&#x6a9;" horiz-adv-x="980" arabic-form="final" 
d="M349 65c248 0 370 30 370 90c0 48 -38 96 -116 143c-23 14 -49 30 -75 44l11 108c91 62 180 114 267 158c29 14 56 26 81 34l21 -77c-86 -32 -192 -89 -316 -171c89 -54 155 -100 197 -141s68 -74 81 -98s25 -40 36 -49c23 -16 48 -26 72 -26h4v-80
c-58 0 -105 24 -140 74c-10 13 -18 27 -25 39s-18 26 -33 45c-1 -72 -52 -120 -152 -146c-60 -15 -113 -25 -164 -26c-40 -1 -76 -1 -107 -1h-23c-79 0 -145 12 -199 40s-82 71 -82 127c0 48 14 105 39 172l65 -13c-4 -12 -11 -35 -22 -67s-17 -62 -17 -91s21 -51 62 -66
s97 -22 165 -22z" />
    <glyph glyph-name="kaf.init" unicode="&#x6a9;" horiz-adv-x="426" arabic-form="initial" 
d="M-30 6v74h60c82 0 139 14 172 42c11 9 17 24 17 39c0 32 -19 62 -56 94c-28 23 -72 53 -135 87l10 108c92 63 181 114 267 158c29 14 56 26 81 34l21 -77c-85 -32 -191 -89 -316 -171c62 -36 104 -67 127 -92c44 -48 66 -95 66 -139c0 -23 -3 -41 -10 -56
c-19 -41 -59 -71 -123 -91c-36 -11 -68 -16 -94 -16h-56c-10 0 -21 3 -31 6z" />
    <glyph glyph-name="kaf.medi" unicode="&#x6a9;" horiz-adv-x="481" arabic-form="medial" 
d="M483 0c-60 0 -108 25 -142 73c-10 13 -18 27 -24 38s-11 21 -17 28s-10 14 -16 22c0 -53 -26 -94 -80 -124c-46 -25 -105 -37 -174 -37h-30c-10 0 -20 3 -30 6v74h60c82 0 139 14 172 42c11 9 17 24 17 39c0 32 -19 62 -56 94c-28 23 -72 53 -135 87l10 108
c92 63 181 114 267 158c29 14 56 26 81 34l21 -77c-86 -32 -192 -89 -316 -171c89 -53 153 -99 194 -139s68 -73 82 -98s28 -42 39 -51c23 -16 48 -26 77 -26v-80z" />
    <glyph glyph-name="uniFB92" unicode="&#x6af;" horiz-adv-x="926" arabic-form="isolated" 
d="M893 628c-120 -38 -227 -82 -323 -129l-20 50c47 22 85 38 111 49s57 24 91 38s77 30 128 45zM783 155c0 -114 -145 -170 -435 -170h-4c-82 0 -151 13 -205 41s-82 70 -82 127c0 47 14 104 39 171l65 -13c-3 -12 -9 -26 -13 -40s-9 -34 -16 -58s-10 -44 -10 -59
s7 -30 18 -41c34 -33 104 -48 208 -48c248 0 371 30 371 90c0 33 -19 64 -56 94c-23 18 -68 45 -136 82l8 101c76 42 166 81 270 118c28 10 50 17 69 21l16 -79c-45 -10 -100 -29 -160 -55s-103 -47 -128 -59c62 -34 101 -62 122 -84s35 -44 45 -65s14 -45 14 -74z" />
    <glyph glyph-name="gaf.fina" unicode="&#x6af;" horiz-adv-x="980" arabic-form="final" 
d="M349 65c248 0 370 30 370 90c0 33 -18 64 -55 94c-22 18 -69 45 -137 82l9 101c75 41 164 81 270 118c28 10 51 17 70 21l15 -79c-45 -10 -99 -29 -159 -55s-105 -47 -130 -59c66 -38 113 -68 143 -91c63 -48 105 -93 127 -135c11 -22 22 -37 34 -46
c23 -16 48 -26 76 -26v-80c-58 0 -105 25 -139 73c-10 13 -20 28 -28 43s-19 29 -31 42c-1 -72 -52 -120 -152 -146c-60 -15 -113 -25 -164 -26c-40 -1 -76 -1 -107 -1h-23c-79 0 -145 12 -199 40s-82 71 -82 127c0 48 14 105 39 172l65 -13c-4 -12 -11 -35 -22 -67
s-17 -62 -17 -91s21 -51 62 -66s97 -22 165 -22zM894 629c-131 -42 -238 -86 -323 -130l-20 51c120 56 230 101 329 132z" />
    <glyph glyph-name="gaf.init" unicode="&#x6af;" horiz-adv-x="426" arabic-form="initial" 
d="M389 629c-129 -41 -236 -85 -324 -130l-19 51c118 55 228 100 330 132zM0 0c-10 0 -20 3 -30 6v74h60c81 0 137 14 169 42c11 9 15 23 15 38c0 44 -38 86 -116 129c-23 13 -49 28 -75 42l9 101c80 44 170 84 270 118c28 10 50 17 69 21l15 -79c-44 -10 -96 -29 -158 -55
s-105 -47 -130 -59c60 -34 101 -62 122 -84c40 -42 59 -86 59 -131c0 -70 -41 -119 -126 -145c-38 -11 -79 -18 -123 -18h-30z" />
    <glyph glyph-name="gaf.medi" unicode="&#x6af;" horiz-adv-x="481" arabic-form="medial" 
d="M389 629c-129 -41 -236 -85 -324 -130l-19 51c118 55 228 100 330 132zM483 0c-76 0 -132 37 -169 112c-7 12 -19 28 -35 48c0 -53 -23 -93 -73 -119s-108 -41 -176 -41h-30c-10 0 -20 3 -30 6v74h60c81 0 137 14 169 42c11 9 15 23 15 38c0 44 -38 86 -116 129
c-23 13 -49 28 -75 42l9 101c80 44 170 84 270 118c28 10 50 17 69 21l15 -79c-44 -10 -96 -29 -158 -55s-105 -47 -130 -59c66 -38 114 -69 143 -91c64 -50 105 -94 126 -135c23 -47 62 -72 116 -72v-80z" />
    <glyph glyph-name="heye" unicode="&#x6c0;" horiz-adv-x="458" arabic-form="isolated" 
d="M126 492c-24 21 -35 43 -35 67s10 46 32 68s44 32 67 32l1 1c23 0 44 -9 64 -28c6 -6 11 -11 17 -18l-32 -35c-3 4 -7 8 -14 16s-17 11 -29 11s-21 -1 -28 -4c-23 -11 -35 -25 -35 -43c0 -12 18 -27 54 -42c18 6 35 10 50 13s31 6 45 10l9 -54c-15 -3 -29 -7 -42 -9
c-37 -7 -93 -27 -165 -63l-19 50c31 15 51 24 60 28zM184 377c30 -10 58 -23 86 -41c98 -63 146 -128 146 -194c0 -24 -14 -52 -40 -82s-68 -51 -125 -64c-16 -4 -34 -6 -53 -6c-41 0 -75 14 -104 39s-43 57 -43 97c0 51 26 116 80 192c22 31 40 50 53 59zM197 287
c-19 -21 -37 -47 -55 -79s-28 -60 -28 -82c0 -25 19 -42 54 -51c11 -3 28 -5 51 -5s50 8 83 22s49 31 49 50c0 46 -51 94 -154 145z" />
    <glyph glyph-name="heye.fina" unicode="&#x6c0;" horiz-adv-x="489" arabic-form="final" 
d="M118 530c-24 21 -36 43 -36 67s10 47 32 69s45 31 68 31l1 1c23 0 43 -8 63 -27c6 -6 11 -12 17 -19l-32 -35c-3 4 -7 9 -14 17s-17 11 -29 11s-20 -2 -27 -5c-23 -11 -36 -25 -36 -43c0 -12 18 -26 54 -41c18 6 35 10 50 13s31 6 45 10l9 -54c-15 -3 -29 -7 -42 -9
c-37 -7 -93 -28 -165 -64l-19 51c31 15 52 23 61 27zM491 0c-41 0 -70 4 -89 12s-35 18 -47 32s-23 33 -32 57l-12 -54c-79 4 -131 11 -155 19c-64 19 -94 49 -94 92c0 75 39 136 118 183c24 14 49 26 78 36l-14 62l63 17l70 -304c9 -44 35 -68 77 -71c12 -1 25 -1 37 -1
v-80zM276 299c-100 -37 -151 -81 -151 -135c0 -16 42 -28 123 -32c23 -1 44 -2 67 -3z" />
    <glyph glyph-name="uniFBE8" unicode="&#x649;" horiz-adv-x="271" arabic-form="initial" 
d="M184 315c25 -77 37 -134 37 -174s-18 -72 -53 -100s-79 -41 -134 -41h-34c-10 0 -20 3 -30 6v74h64c36 0 62 5 78 14s28 16 34 23s9 14 9 22c0 32 -13 89 -38 170z" />
    <glyph glyph-name="uniFBE9" unicode="&#x649;" horiz-adv-x="293" arabic-form="medial" 
d="M145 46c-28 -31 -72 -46 -131 -46h-14c-10 0 -20 3 -30 6v74h44c35 0 62 7 78 20s26 29 26 50v93h64v-93c0 -23 9 -42 24 -53s45 -17 90 -17v-80c-78 0 -129 15 -151 46z" />
    <glyph glyph-name="uniFBFC" unicode="&#x6cc;" horiz-adv-x="751" arabic-form="isolated" 
d="M582 -25v2c0 8 -6 14 -16 20s-35 14 -73 25s-65 23 -79 37s-22 40 -22 74s23 70 68 111s89 61 132 61s83 -29 119 -86l-55 -45c-20 32 -44 48 -70 48s-53 -11 -83 -32s-45 -41 -45 -61c0 -7 4 -13 13 -17s34 -12 72 -23s67 -25 82 -41s24 -39 24 -72
c0 -50 -50 -90 -149 -121c-84 -26 -162 -40 -236 -40c-144 0 -217 53 -217 160c0 58 25 128 72 207l53 -26c-6 -10 -11 -22 -18 -34c-25 -47 -40 -96 -40 -147c0 -53 47 -79 138 -79c107 0 196 12 269 35c41 13 61 28 61 44z" />
    <glyph glyph-name="ye.fina.farsi" unicode="&#x6cc;" horiz-adv-x="701" arabic-form="final" 
d="M114 -41c0 -55 62 -82 185 -82c28 0 65 2 109 5s80 8 108 14s40 13 40 22c0 23 -36 52 -109 88l38 86c29 0 63 -1 103 -5s79 -7 115 -7v-80c-34 0 -66 3 -97 10s-52 11 -65 13c54 -35 79 -70 79 -105c0 -24 -19 -48 -59 -68c-73 -36 -171 -55 -294 -55
c-102 0 -169 32 -202 92c-11 21 -18 43 -18 67c0 64 25 133 72 211l53 -24c-19 -35 -33 -65 -43 -90s-15 -56 -15 -92z" />
    <glyph glyph-name="ye.init.farsi" unicode="&#x6cc;" horiz-adv-x="293" arabic-form="initial" 
d="M88 -194h-84v84h84v-84zM211 -194h-83v84h83v-84zM184 315c25 -77 37 -134 37 -174s-18 -72 -53 -100s-79 -41 -134 -41h-34c-10 0 -20 3 -30 6v74h64c36 0 62 5 78 14s28 16 34 23s9 14 9 22c0 32 -13 89 -38 170z" />
    <glyph glyph-name="ye.medi.farsi" unicode="&#x6cc;" horiz-adv-x="293" arabic-form="medial" 
d="M88 -194h-84v84h84v-84zM211 -194h-83v84h83v-84zM145 46c-28 -31 -72 -46 -131 -46h-14c-10 0 -20 3 -30 6v74h44c35 0 62 7 78 20s26 29 26 50v93h64v-93c0 -23 9 -42 24 -53s45 -17 90 -17v-80c-78 0 -129 15 -151 46z" />
    <glyph glyph-name="uniFC5E" unicode="&#xfc5e;" horiz-adv-x="271" arabic-form="isolated" 
d="M221 629c0 26 -10 44 -31 53c-32 0 -54 -21 -64 -63c10 -10 25 -19 40 -23s29 -9 38 -12c12 22 17 37 17 45zM231 575c7 -3 17 -7 31 -9v-32l-48 16c-30 -47 -89 -87 -178 -119c-1 3 -2 7 -3 10s-3 8 -4 12s-3 10 -4 16c10 1 22 5 40 13c1 4 1 7 1 9v6c0 25 -8 43 -23 51
c-9 6 -17 6 -25 6s-14 -1 -21 -3c-2 3 -5 8 -6 10l-4 8c-1 2 -3 4 -5 6s-4 6 -5 9c8 3 18 6 30 6c25 0 46 -10 60 -28s22 -41 23 -72c30 14 52 27 68 41s27 23 31 29c-7 2 -14 4 -23 5s-19 5 -33 9s-26 16 -36 30c9 53 33 89 73 107c12 6 21 7 29 7h12c26 -19 40 -40 40 -65
s-3 -42 -9 -53s-10 -21 -11 -25zM201 330c25 0 38 23 38 70c0 12 -2 29 -5 52l27 7l3 -78c0 -36 -11 -62 -34 -75c-8 -4 -16 -8 -26 -8s-20 5 -29 13s-15 20 -21 34c-12 -53 -31 -78 -59 -79h-4c-30 0 -48 17 -56 49c-4 15 -6 25 -6 31v10l-1 31l24 7l2 -39
c2 -38 13 -57 35 -57c31 0 46 30 46 90v30l23 9c0 -35 9 -64 24 -86c6 -8 11 -11 19 -11z" />
    <glyph glyph-name="uniFC5F" unicode="&#xfc5f;" horiz-adv-x="271" arabic-form="isolated" 
d="M243 471l-207 -84v39l207 83v-38zM243 364l-207 -82v38l207 83v-39zM167 590c25 0 38 23 38 70c0 12 -2 29 -5 52l27 6l3 -78c0 -36 -11 -62 -34 -75c-8 -4 -17 -7 -27 -7s-19 5 -28 13s-15 20 -21 34c-12 -53 -32 -78 -60 -79h-3c-30 0 -48 16 -56 48c-4 15 -7 26 -7 32
v10l-1 31l25 6l2 -38c2 -38 13 -57 35 -57c31 0 46 30 46 90v30l23 8c0 -35 8 -63 23 -85c6 -8 12 -11 20 -11z" />
    <glyph glyph-name="uniFC60" unicode="&#xfc60;" horiz-adv-x="271" arabic-form="isolated" 
d="M218 679l-207 -83v39l207 82v-38zM194 473c25 0 37 23 37 70c0 12 -1 29 -4 52l26 7l3 -78c0 -36 -11 -62 -34 -75c-8 -4 -16 -8 -26 -8s-20 5 -29 13s-15 20 -21 34c-12 -53 -31 -78 -59 -79h-3c-30 0 -48 17 -56 49c-4 15 -7 26 -7 32v9l-1 31l24 7l2 -39
c2 -38 13 -57 35 -57c31 0 47 30 47 90v30l23 9c0 -35 8 -64 23 -86c6 -8 12 -11 20 -11z" />
    <glyph glyph-name="uniFC61" unicode="&#xfc61;" horiz-adv-x="271" arabic-form="isolated" 
d="M191 573c6 -4 18 -8 38 -14l-8 -31l-48 21c-36 -52 -90 -91 -160 -117v43c60 16 105 44 134 82c-7 3 -14 5 -22 7s-20 7 -34 15s-22 14 -28 21c3 57 25 95 65 110c12 4 25 6 39 6c26 -19 40 -43 40 -74c0 -3 -1 -7 -2 -14s-3 -12 -4 -19s-3 -11 -5 -18s-5 -12 -5 -18z
M178 626c0 25 -10 43 -30 52c-16 0 -29 -5 -39 -14s-15 -23 -21 -44c10 -10 24 -17 40 -23s29 -11 38 -14c8 16 12 31 12 43zM196 330c25 0 37 23 37 70c0 12 -1 29 -4 52l26 7l3 -78c0 -36 -11 -62 -34 -75c-8 -4 -16 -8 -26 -8s-20 5 -29 13s-15 20 -21 34
c-12 -53 -31 -78 -59 -79h-3c-30 0 -48 17 -56 49c-4 15 -7 25 -7 31v10l-1 31l24 7l2 -39c2 -38 14 -57 36 -57c31 0 46 30 46 90v30l23 9c0 -35 8 -64 23 -86c6 -8 12 -11 20 -11z" />
    <glyph glyph-name="uniFC62" unicode="&#xfc62;" horiz-adv-x="271" arabic-form="isolated" 
d="M262 475l-207 -81v38l207 83v-40zM187 590c25 0 37 23 37 70c0 12 -1 29 -4 52l26 6l4 -78c0 -36 -11 -62 -34 -75c-8 -4 -17 -7 -27 -7s-19 5 -28 13s-15 20 -21 34c-12 -53 -32 -78 -60 -79h-3c-30 0 -48 16 -56 48c-4 15 -7 26 -7 32v10l-1 31l24 6l3 -38
c2 -38 13 -57 35 -57c31 0 46 30 46 90v30l23 8c0 -35 8 -63 23 -85c6 -8 12 -11 20 -11z" />
    <glyph glyph-name="uniFC63" unicode="&#xfc63;" horiz-adv-x="271" arabic-form="isolated" 
d="M100 724c25 -44 38 -85 38 -122v-20c0 -3 -3 -8 -3 -12c-1 -7 0 -6 -1 -13c0 -4 -2 -8 -2 -10h-23c0 45 -9 83 -27 117c-6 10 -10 20 -16 29zM184 405c25 0 37 23 37 70c0 12 -1 29 -4 52l26 7l3 -79c0 -36 -11 -61 -34 -74c-8 -4 -16 -8 -26 -8s-20 5 -29 13
s-15 20 -21 34c-12 -53 -31 -78 -59 -79h-3c-30 0 -48 16 -56 48c-4 15 -7 26 -7 32v10l-1 31l24 7l2 -39c2 -38 14 -57 36 -57c31 0 46 30 46 90v30l23 9c0 -35 8 -64 23 -86c6 -8 12 -11 20 -11z" />
    <glyph glyph-name="uniFDFC" unicode="&#xfdfc;" horiz-adv-x="1214" arabic-form="isolated" 
d="M651 -65h-85v85h85v-85zM785 -65h-83v85h83v-85zM541 646v-451c0 -162 -59 -261 -173 -296c-37 -11 -75 -17 -115 -17c-69 0 -120 13 -153 43s-49 70 -49 123s23 120 69 201l53 -26c-25 -48 -42 -85 -48 -111s-7 -49 -7 -64c0 -57 40 -85 124 -85s143 15 179 48
s54 92 54 178v457h66zM862 393l62 28c29 -80 43 -140 43 -180s-14 -73 -45 -99s-74 -40 -131 -40s-98 13 -121 36s-35 61 -35 114v394h66v-394c0 -24 6 -43 19 -54s40 -16 76 -16h2c35 0 62 5 78 16s25 25 25 40c0 32 -14 83 -39 155zM840 -6c121 43 201 96 239 158
c13 21 21 43 21 68s-5 54 -16 87s-22 55 -32 67l50 51c24 -30 44 -82 58 -152c4 -20 7 -42 7 -67s-9 -52 -24 -82s-37 -57 -65 -82c-55 -52 -128 -94 -217 -126z" />
    <glyph glyph-name="uniFE80" unicode="&#x621;" horiz-adv-x="321" arabic-form="isolated" 
d="M77 88c-24 22 -36 46 -36 77s13 59 39 88s53 43 81 43s49 -8 68 -21c7 -4 13 -11 21 -19l-42 -58c-11 11 -30 15 -56 15c-10 0 -21 -4 -32 -15s-17 -22 -17 -34c0 -10 21 -24 59 -40c32 10 69 19 112 27l13 -79c-99 -21 -177 -49 -233 -86l-33 68c14 9 33 21 56 34z" />
    <glyph glyph-name="uniFE81" unicode="&#x622;" horiz-adv-x="300" arabic-form="isolated" 
d="M315 635c-69 -43 -134 -64 -193 -64c-18 0 -41 2 -72 8c-3 -9 -6 -19 -6 -30v-29h-43c0 33 3 59 12 80s16 34 23 42c18 -12 50 -17 96 -17s100 19 160 56zM187 0h-65v463h65v-463z" />
    <glyph glyph-name="alef.aa.fina" unicode="&#x622;" horiz-adv-x="327" arabic-form="final" 
d="M315 635c-69 -43 -134 -64 -193 -64c-18 0 -41 2 -72 8c-3 -9 -6 -19 -6 -30v-29h-43c0 33 3 59 12 80s16 34 23 42c18 -12 50 -17 96 -17s100 19 160 56zM330 0h-51c-87 0 -139 27 -153 82c-6 19 -7 43 -7 68v313h65v-313c0 -24 8 -42 21 -53s36 -17 69 -17h56v-80z" />
    <glyph glyph-name="uniFE83" unicode="&#x623;" horiz-adv-x="300" arabic-form="isolated" 
d="M101 561c-24 21 -35 43 -35 67s10 46 32 68s44 32 67 32l1 1c23 0 44 -8 64 -27c6 -6 10 -12 16 -19l-32 -35c-3 4 -7 8 -14 16s-16 11 -28 11s-21 -1 -28 -4c-23 -11 -35 -25 -35 -43c0 -12 18 -27 54 -42c18 6 34 11 49 14s31 5 45 9l9 -53c-15 -3 -29 -7 -42 -9
c-37 -7 -93 -28 -165 -64l-18 51c31 15 51 23 60 27zM184 0h-65v463h65v-463z" />
    <glyph glyph-name="alef.thmz.fina" unicode="&#x623;" horiz-adv-x="327" arabic-form="final" 
d="M94 561c-24 21 -36 43 -36 67s10 46 32 68s44 32 67 32l1 1c23 0 44 -8 64 -27c6 -6 11 -12 17 -19l-32 -35c-3 4 -8 8 -15 16s-16 11 -28 11s-21 -1 -28 -4c-23 -11 -35 -25 -35 -43c0 -12 18 -27 54 -42c18 6 35 11 50 14s31 5 45 9l8 -53c-15 -3 -28 -7 -41 -9
c-37 -7 -93 -28 -165 -64l-19 51c31 15 52 23 61 27zM330 0h-51c-87 0 -139 27 -153 82c-6 19 -7 43 -7 68v313h65v-313c0 -24 8 -42 21 -53s36 -17 69 -17h56v-80z" />
    <glyph glyph-name="uniFE85" unicode="&#x624;" horiz-adv-x="451" arabic-form="isolated" 
d="M180 459c-24 21 -35 43 -35 67s10 46 32 68s44 32 67 32l1 1c23 0 44 -8 64 -27c6 -6 11 -12 17 -19l-32 -35c-3 4 -8 8 -15 16s-16 11 -28 11s-21 -1 -28 -4c-23 -11 -35 -25 -35 -43c0 -12 18 -27 54 -42c18 6 35 10 50 13s31 6 45 10l8 -54c-15 -3 -28 -7 -41 -9
c-37 -7 -93 -27 -165 -63l-19 50c31 15 51 24 60 28zM322 45c-19 -7 -35 -10 -51 -10s-30 0 -39 1c-70 6 -106 39 -106 99c0 38 15 79 44 122s56 65 84 65c41 0 74 -23 100 -70s40 -95 40 -143s-4 -86 -14 -112c-16 -46 -49 -89 -94 -126s-110 -71 -195 -103l-23 74l1 2
c145 54 230 122 253 201zM191 135c0 -12 22 -19 66 -19c24 0 48 5 71 15c-9 50 -24 83 -46 101c-8 7 -17 10 -26 10c-16 0 -32 -13 -45 -38s-20 -49 -20 -69z" />
    <glyph glyph-name="vav.thmz.fina" unicode="&#x624;" horiz-adv-x="526" arabic-form="final" 
d="M180 459c-24 21 -35 43 -35 67s10 46 32 68s44 32 67 32l1 1c23 0 44 -8 64 -27c6 -6 11 -12 17 -19l-32 -35c-3 4 -8 8 -15 16s-16 11 -28 11s-21 -1 -28 -4c-23 -11 -35 -25 -35 -43c0 -12 18 -27 54 -42c18 6 35 10 50 13s31 6 45 10l8 -54c-15 -3 -28 -7 -41 -9
c-37 -7 -93 -27 -165 -63l-19 50c31 15 51 24 60 28zM503 0c-52 0 -90 1 -114 3c-15 -46 -46 -89 -91 -127s-112 -75 -200 -108l-22 76c131 51 212 105 242 167c-117 20 -176 61 -176 124c0 37 14 77 43 121s55 66 83 66s54 -11 78 -39s42 -71 51 -129c3 -18 5 -35 5 -51
v-21c26 -1 54 -2 80 -2h45v-80h-24zM337 86c1 7 1 18 1 38s-7 44 -19 74s-27 44 -49 44c-14 0 -29 -12 -42 -37s-21 -50 -21 -70s27 -34 81 -43c15 -2 33 -4 49 -6z" />
    <glyph glyph-name="uniFE87" unicode="&#x625;" horiz-adv-x="271" arabic-form="isolated" 
d="M70 -221c-24 21 -35 43 -35 66s10 46 32 68s42 33 63 33s37 -3 48 -11s25 -19 39 -35l-33 -35c-4 3 -9 8 -16 16s-17 10 -32 10s-28 -5 -40 -15s-18 -20 -18 -29s6 -17 16 -24s23 -13 39 -20c19 8 36 11 50 13s28 6 44 10l9 -55c-9 -2 -17 -3 -25 -4
c-43 -7 -103 -28 -181 -66l-19 48c12 6 22 13 32 17s18 9 27 13zM157 0h-65v613h65v-613z" />
    <glyph glyph-name="alef.bhmz.fina" unicode="&#x625;" horiz-adv-x="275" arabic-form="final" 
d="M66 -221c-24 21 -35 43 -35 66s10 46 32 68s41 33 62 33s38 -3 49 -11s24 -19 38 -35l-33 -35c-4 3 -8 8 -15 16s-17 10 -32 10s-29 -5 -41 -15s-17 -20 -17 -29s5 -17 15 -24s24 -13 40 -20c19 8 35 11 49 13s28 6 44 10l10 -55c-9 -2 -17 -3 -25 -4
c-43 -7 -104 -28 -182 -66l-18 48c12 6 21 13 31 17s19 9 28 13zM277 0h-25c-60 0 -101 11 -124 34s-36 62 -36 116v463h65v-463c0 -24 7 -42 21 -53s38 -17 74 -17h25v-80z" />
    <glyph glyph-name="uniFE89" unicode="&#x626;" horiz-adv-x="751" arabic-form="isolated" 
d="M265 412c-24 21 -35 44 -35 68s10 46 32 68s44 32 67 32l1 1c23 0 44 -9 64 -28c6 -6 10 -11 16 -18l-32 -36c-3 4 -7 9 -14 17s-16 11 -28 11s-21 -2 -28 -5c-23 -11 -35 -24 -35 -42c0 -12 18 -27 54 -42c18 6 34 10 49 13s31 6 45 10l9 -54c-15 -3 -29 -7 -42 -9
c-37 -7 -93 -28 -165 -64l-18 51c31 15 51 23 60 27zM582 -25v2c0 8 -6 14 -16 20s-35 14 -73 25s-65 23 -79 37s-22 40 -22 74s23 70 68 111s89 61 132 61s83 -29 119 -86l-55 -45c-20 32 -44 48 -70 48s-53 -11 -83 -32s-45 -41 -45 -61c0 -7 4 -13 13 -17s34 -12 72 -23
s67 -25 82 -41s24 -39 24 -72c0 -50 -50 -90 -149 -121c-84 -26 -162 -40 -236 -40c-144 0 -217 53 -217 160c0 58 25 128 72 207l53 -26c-6 -10 -11 -22 -18 -34c-25 -47 -40 -96 -40 -147c0 -53 47 -79 138 -79c107 0 196 12 269 35c41 13 61 28 61 44z" />
    <glyph glyph-name="ye.hamze.fina" unicode="&#x626;" horiz-adv-x="701" arabic-form="final" 
d="M392 296c-24 21 -36 43 -36 67s10 46 32 68s44 32 67 32l1 1c23 0 44 -8 64 -27c6 -6 11 -12 17 -19l-32 -35c-3 4 -7 8 -14 16s-17 11 -29 11s-21 -1 -28 -4c-23 -11 -35 -25 -35 -43c0 -12 18 -27 54 -42c18 6 35 10 50 13s31 6 45 10l9 -54c-15 -3 -29 -6 -42 -8
c-37 -7 -93 -28 -165 -64l-19 50c31 15 52 24 61 28zM114 -41c0 -55 62 -82 185 -82c28 0 65 2 109 5s80 8 108 14s40 13 40 22c0 23 -36 52 -109 88l38 86c29 0 63 -1 103 -5s79 -7 115 -7v-80c-34 0 -66 3 -97 10s-52 11 -65 13c54 -35 79 -70 79 -105
c0 -24 -19 -48 -59 -68c-73 -36 -171 -55 -294 -55c-102 0 -169 32 -202 92c-11 21 -18 43 -18 67c0 64 25 133 72 211l53 -24c-19 -35 -33 -65 -43 -90s-15 -56 -15 -92z" />
    <glyph glyph-name="ye.hamze.init" unicode="&#x626;" horiz-adv-x="293" arabic-form="initial" 
d="M55 492c-24 21 -35 43 -35 67s10 46 32 68s44 32 67 32l1 1c23 0 44 -9 64 -28c6 -6 10 -11 16 -18l-32 -35c-3 4 -7 8 -14 16s-17 11 -29 11s-20 -1 -27 -4c-23 -11 -35 -25 -35 -43c0 -12 18 -27 54 -42c18 6 34 10 49 13s31 6 45 10l9 -54c-15 -3 -29 -7 -42 -9
c-37 -7 -93 -27 -165 -63l-19 50c31 15 52 24 61 28zM184 315c25 -77 37 -134 37 -174s-18 -72 -53 -100s-79 -41 -134 -41h-34c-10 0 -20 3 -30 6v74h64c36 0 62 5 78 14s28 16 34 23s9 14 9 22c0 32 -13 89 -38 170z" />
    <glyph glyph-name="ye.hamze.medi" unicode="&#x626;" horiz-adv-x="293" arabic-form="medial" 
d="M55 412c-24 21 -35 44 -35 68s10 46 32 68s44 32 67 32l1 1c23 0 44 -9 64 -28c6 -6 10 -11 16 -18l-32 -36c-3 4 -7 9 -14 17s-17 11 -29 11s-20 -2 -27 -5c-23 -11 -35 -24 -35 -42c0 -12 18 -27 54 -42c18 6 34 10 49 13s31 6 45 10l9 -54c-15 -3 -29 -7 -42 -9
c-37 -7 -93 -28 -165 -64l-19 51c31 15 52 23 61 27zM145 46c-28 -31 -72 -46 -131 -46h-14c-10 0 -20 3 -30 6v74h44c35 0 62 7 78 20s26 29 26 50v93h64v-93c0 -23 9 -42 24 -53s45 -17 90 -17v-80c-78 0 -129 15 -151 46z" />
    <glyph glyph-name="uniFE8D" unicode="&#x627;" horiz-adv-x="254" arabic-form="isolated" 
d="M157 0h-65v613h65v-613z" />
    <glyph glyph-name="alef.fina" unicode="&#x627;" horiz-adv-x="275" arabic-form="final" 
d="M277 0h-25c-60 0 -101 11 -124 34s-36 62 -36 116v463h65v-463c0 -24 7 -42 21 -53s38 -17 74 -17h25v-80z" />
    <glyph glyph-name="uniFE8F" unicode="&#x628;" horiz-adv-x="926" arabic-form="isolated" 
d="M486 -194h-83v84h83v-84zM836 323c25 -77 38 -133 38 -168s-8 -61 -23 -74c-24 -23 -92 -45 -205 -66s-200 -30 -263 -30s-114 2 -149 9c-118 22 -177 75 -177 159c0 47 14 104 39 171l65 -13c-3 -12 -11 -36 -22 -68s-17 -62 -17 -91s21 -50 63 -65s96 -22 164 -22
c114 0 235 14 365 45c44 10 70 19 80 23s14 9 14 13c0 34 -13 92 -39 172z" />
    <glyph glyph-name="be.fina" unicode="&#x628;" horiz-adv-x="980" arabic-form="final" 
d="M486 -194h-83v84h83v-84zM982 0c-94 0 -152 25 -175 73c-36 -31 -124 -55 -266 -75c-62 -9 -105 -13 -133 -13h-43c-97 0 -172 12 -226 40s-82 71 -82 127c0 48 14 105 39 172l65 -13c-4 -12 -11 -35 -22 -67s-17 -62 -17 -91s21 -51 63 -66s97 -22 169 -22s154 8 249 23
s152 35 173 59c14 18 24 35 30 53s11 32 14 43l7 22l57 -22c-16 -58 -25 -93 -25 -103c0 -20 10 -34 28 -44s50 -16 95 -16v-80z" />
    <glyph glyph-name="be.init" unicode="&#x628;" horiz-adv-x="271" arabic-form="initial" 
d="M150 -194h-84v84h84v-84zM184 315c25 -77 37 -134 37 -174s-18 -72 -53 -100s-79 -41 -134 -41h-34c-10 0 -20 3 -30 6v74h64c36 0 62 5 78 14s28 16 34 23s9 14 9 22c0 32 -13 89 -38 170z" />
    <glyph glyph-name="be.medi" unicode="&#x628;" horiz-adv-x="293" arabic-form="medial" 
d="M150 -194h-84v84h84v-84zM145 46c-28 -31 -72 -46 -131 -46h-14c-10 0 -20 3 -30 6v74h44c35 0 62 7 78 20s26 29 26 50v93h64v-93c0 -23 9 -42 24 -53s45 -17 90 -17v-80c-78 0 -129 15 -151 46z" />
    <glyph glyph-name="uniFE93" unicode="&#x629;" horiz-adv-x="458" arabic-form="isolated" 
d="M160 444h-84v84h84v-84zM283 444h-84v84h84v-84zM184 377c30 -10 58 -23 86 -41c98 -63 146 -128 146 -194c0 -24 -14 -52 -40 -82s-68 -51 -125 -64c-16 -4 -34 -6 -53 -6c-41 0 -75 14 -104 39s-43 57 -43 97c0 51 26 116 80 192c22 31 40 50 53 59zM197 287
c-19 -21 -37 -47 -55 -79s-28 -60 -28 -82c0 -25 19 -42 54 -51c11 -3 28 -5 51 -5s50 8 83 22s49 31 49 50c0 46 -51 94 -154 145z" />
    <glyph glyph-name="uniFE94" unicode="&#x629;" horiz-adv-x="489" arabic-form="final" 
d="M249 516h-84v84h84v-84zM372 516h-84v84h84v-84zM491 0c-41 0 -70 4 -89 12s-35 18 -47 32s-23 33 -32 57l-12 -54c-79 4 -131 11 -155 19c-64 19 -94 49 -94 92c0 75 39 136 118 183c24 14 49 26 78 36l-14 62l63 17l70 -304c9 -44 35 -68 77 -71c12 -1 25 -1 37 -1v-80
zM276 299c-100 -37 -151 -81 -151 -135c0 -16 42 -28 123 -32c23 -1 44 -2 67 -3z" />
    <glyph glyph-name="uniFE95" unicode="&#x62a;" horiz-adv-x="926" arabic-form="isolated" 
d="M437 365h-84v84h84v-84zM560 365h-84v84h84v-84zM836 323c25 -77 38 -133 38 -168s-8 -61 -23 -74c-24 -23 -92 -45 -205 -66s-200 -30 -263 -30s-114 2 -149 9c-118 22 -177 75 -177 159c0 47 14 104 39 171l65 -13c-3 -12 -11 -36 -22 -68s-17 -62 -17 -91
s21 -50 63 -65s96 -22 164 -22c114 0 235 14 365 45c44 10 70 19 80 23s14 9 14 13c0 34 -13 92 -39 172z" />
    <glyph glyph-name="te.fina" unicode="&#x62a;" horiz-adv-x="980" arabic-form="final" 
d="M471 365h-84v84h84v-84zM594 365h-84v84h84v-84zM982 0c-94 0 -152 25 -175 73c-36 -31 -124 -55 -266 -75c-62 -9 -105 -13 -133 -13h-43c-97 0 -172 12 -226 40s-82 71 -82 127c0 48 14 105 39 172l65 -13c-4 -12 -11 -35 -22 -67s-17 -62 -17 -91s21 -51 63 -66
s97 -22 169 -22s154 8 249 23s152 35 173 59c14 18 24 35 30 53s11 32 14 43l7 22l57 -22c-16 -58 -25 -93 -25 -103c0 -20 10 -34 28 -44s50 -16 95 -16v-80z" />
    <glyph glyph-name="te.init" unicode="&#x62a;" horiz-adv-x="293" arabic-form="initial" 
d="M88 444h-84v84h84v-84zM211 444h-83v84h83v-84zM184 315c25 -77 37 -134 37 -174s-18 -72 -53 -100s-79 -41 -134 -41h-34c-10 0 -20 3 -30 6v74h64c36 0 62 5 78 14s28 16 34 23s9 14 9 22c0 32 -13 89 -38 170z" />
    <glyph glyph-name="te.medi" unicode="&#x62a;" horiz-adv-x="293" arabic-form="medial" 
d="M88 365h-84v84h84v-84zM211 365h-83v84h83v-84zM145 46c-28 -31 -72 -46 -131 -46h-14c-10 0 -20 3 -30 6v74h44c35 0 62 7 78 20s26 29 26 50v93h64v-93c0 -23 9 -42 24 -53s45 -17 90 -17v-80c-78 0 -129 15 -151 46z" />
    <glyph glyph-name="uniFE99" unicode="&#x62b;" horiz-adv-x="926" arabic-form="isolated" 
d="M432 365h-83v84h83v-84zM563 365h-83v84h83v-84zM497 493h-83v83h83v-83zM836 323c25 -77 38 -133 38 -168s-8 -61 -23 -74c-24 -23 -92 -45 -205 -66s-200 -30 -263 -30s-114 2 -149 9c-118 22 -177 75 -177 159c0 47 14 104 39 171l65 -13c-3 -12 -11 -36 -22 -68
s-17 -62 -17 -91s21 -50 63 -65s96 -22 164 -22c114 0 235 14 365 45c44 10 70 19 80 23s14 9 14 13c0 34 -13 92 -39 172z" />
    <glyph glyph-name="the.fina" unicode="&#x62b;" horiz-adv-x="980" arabic-form="final" 
d="M466 365h-83v84h83v-84zM597 365h-83v84h83v-84zM531 493h-83v83h83v-83zM982 0c-94 0 -152 25 -175 73c-36 -31 -124 -55 -266 -75c-62 -9 -105 -13 -133 -13h-43c-97 0 -172 12 -226 40s-82 71 -82 127c0 48 14 105 39 172l65 -13c-4 -12 -11 -35 -22 -67
s-17 -62 -17 -91s21 -51 63 -66s97 -22 169 -22s154 8 249 23s152 35 173 59c14 18 24 35 30 53s11 32 14 43l7 22l57 -22c-16 -58 -25 -93 -25 -103c0 -20 10 -34 28 -44s50 -16 95 -16v-80z" />
    <glyph glyph-name="the.init" unicode="&#x62b;" horiz-adv-x="293" arabic-form="initial" 
d="M84 444h-84v84h84v-84zM214 444h-83v84h83v-84zM148 572h-83v84h83v-84zM184 315c25 -77 37 -134 37 -174s-18 -72 -53 -100s-79 -41 -134 -41h-34c-10 0 -20 3 -30 6v74h64c36 0 62 5 78 14s28 16 34 23s9 14 9 22c0 32 -13 89 -38 170z" />
    <glyph glyph-name="the.medi" unicode="&#x62b;" horiz-adv-x="293" arabic-form="medial" 
d="M84 365h-84v84h84v-84zM214 365h-83v84h83v-84zM148 493h-83v83h83v-83zM145 46c-28 -31 -72 -46 -131 -46h-14c-10 0 -20 3 -30 6v74h44c35 0 62 7 78 20s26 29 26 50v93h64v-93c0 -23 9 -42 24 -53s45 -17 90 -17v-80c-78 0 -129 15 -151 46z" />
    <glyph glyph-name="uniFE9D" unicode="&#x62c;" horiz-adv-x="631" arabic-form="isolated" 
d="M419 -1h-83v83h83v-83zM58 16c0 114 86 202 256 264l-108 60c-18 8 -29 12 -36 12s-10 -2 -16 -9l-57 -63l-39 39l49 78c3 4 7 9 10 13s10 9 19 15s22 8 36 8s35 -8 63 -22l139 -74c25 -12 59 -18 100 -18c11 0 21 -1 30 -1h60v-80h-54c-72 0 -146 -16 -223 -47
c-108 -43 -162 -98 -162 -170s32 -119 98 -141c25 -9 57 -13 91 -13c86 0 158 8 217 26l17 -67c-77 -26 -155 -39 -234 -39h-2c-133 0 -215 51 -244 153c-8 24 -10 50 -10 76z" />
    <glyph glyph-name="jim.fina" unicode="&#x62c;" horiz-adv-x="631" arabic-form="final" 
d="M368 -1h-83v83h83v-83zM58 16c0 114 86 202 256 264l-108 60c-18 8 -29 12 -36 12s-10 -2 -16 -9l-57 -63l-39 39l49 78c3 4 7 9 10 13s10 9 19 15s22 8 36 8s35 -8 63 -22l139 -74c25 -12 59 -18 100 -18c11 0 21 -1 30 -1h60v-80h-65l30 -83c8 -23 18 -40 29 -49
c20 -16 45 -26 76 -26v-80c-69 0 -118 26 -144 80c-8 16 -14 35 -20 55l-27 96c-163 -28 -263 -77 -303 -147c-10 -18 -16 -38 -16 -60c1 -104 67 -157 197 -157c81 0 151 8 210 26l17 -67c-77 -26 -155 -39 -234 -39h-2c-133 0 -215 51 -244 153c-8 24 -10 50 -10 76z" />
    <glyph glyph-name="jim.init" unicode="&#x62c;" horiz-adv-x="631" arabic-form="initial" 
d="M251 -194h-84v84h84v-84zM573 148h-52c-28 0 -54 -9 -77 -25c-63 -50 -116 -82 -160 -98s-77 -25 -102 -25h-182c-10 0 -20 3 -30 6v74h212c45 0 97 21 161 62c15 10 29 18 38 26c-3 2 -9 4 -13 6s-7 4 -10 6l-146 84c-16 9 -28 13 -36 13s-14 -4 -22 -12l-55 -58l-41 38
l53 77c18 23 42 36 74 36c15 0 36 -7 59 -22l144 -85c26 -13 54 -20 82 -21s51 -1 73 -1h30v-81z" />
    <glyph glyph-name="jim.medi" unicode="&#x62c;" horiz-adv-x="644" arabic-form="medial" 
d="M251 -194h-84v84h84v-84zM647 0c-67 0 -115 8 -140 21s-46 42 -60 85l-6 16c-68 -51 -121 -83 -161 -98s-73 -24 -102 -24h-178c-10 0 -20 3 -30 6v74h208c45 0 99 21 163 62c15 10 27 18 36 26c-3 2 -8 4 -12 6s-8 4 -10 6l-145 84c-16 9 -29 13 -37 13s-14 -4 -21 -12
l-55 -58l-41 38l52 77c16 23 42 36 74 36c15 0 35 -7 59 -22l145 -85c26 -13 54 -20 82 -21s51 -1 73 -1h30v-81h-53c-4 0 -8 -1 -12 -1s-8 -1 -11 -1l5 -11c10 -21 25 -35 46 -43s54 -12 101 -12v-80z" />
    <glyph glyph-name="uniFEA1" unicode="&#x62d;" horiz-adv-x="631" arabic-form="isolated" 
d="M58 16c0 114 86 202 256 264l-108 60c-18 8 -29 12 -36 12s-10 -2 -16 -9l-57 -63l-39 39l49 78c3 4 7 9 10 13s10 9 19 15s22 8 36 8s35 -8 63 -22l139 -74c25 -12 59 -18 100 -18c11 0 21 -1 30 -1h60v-80h-54c-72 0 -146 -16 -223 -47c-108 -43 -162 -98 -162 -170
s32 -119 98 -141c25 -9 57 -13 91 -13c86 0 158 8 217 26l17 -67c-77 -26 -155 -39 -234 -39h-2c-133 0 -215 51 -244 153c-8 24 -10 50 -10 76z" />
    <glyph glyph-name="him.fina" unicode="&#x62d;" horiz-adv-x="631" arabic-form="final" 
d="M58 16c0 114 86 202 256 264l-108 60c-18 8 -29 12 -36 12s-10 -2 -16 -9l-57 -63l-39 39l49 78c3 4 7 9 10 13s10 9 19 15s22 8 36 8s35 -8 63 -22l139 -74c25 -12 59 -18 100 -18c11 0 21 -1 30 -1h60v-80h-65l30 -83c8 -23 18 -40 29 -49c20 -16 45 -26 76 -26v-80
c-69 0 -118 26 -144 80c-8 16 -14 35 -20 55l-27 96c-163 -28 -263 -77 -303 -147c-10 -18 -16 -38 -16 -60c1 -104 67 -157 197 -157c81 0 151 8 210 26l17 -67c-77 -26 -155 -39 -234 -39h-2c-133 0 -215 51 -244 153c-8 24 -10 50 -10 76z" />
    <glyph glyph-name="him.init" unicode="&#x62d;" horiz-adv-x="631" arabic-form="initial" 
d="M573 148h-52c-28 0 -54 -9 -77 -25c-63 -50 -116 -82 -160 -98s-77 -25 -102 -25h-182c-10 0 -20 3 -30 6v74h212c45 0 97 21 161 62c15 10 29 18 38 26c-3 2 -9 4 -13 6s-7 4 -10 6l-146 84c-16 9 -28 13 -36 13s-14 -4 -22 -12l-55 -58l-41 38l53 77c18 23 42 36 74 36
c15 0 36 -7 59 -22l144 -85c26 -13 54 -20 82 -21s51 -1 73 -1h30v-81z" />
    <glyph glyph-name="him.medi" unicode="&#x62d;" horiz-adv-x="644" arabic-form="medial" 
d="M647 0c-67 0 -115 8 -140 21s-46 42 -60 85l-6 16c-68 -51 -121 -83 -161 -98s-73 -24 -102 -24h-178c-10 0 -20 3 -30 6v74h208c45 0 99 21 163 62c15 10 27 18 36 26c-3 2 -8 4 -12 6s-8 4 -10 6l-145 84c-16 9 -29 13 -37 13s-14 -4 -21 -12l-55 -58l-41 38l52 77
c16 23 42 36 74 36c15 0 35 -7 59 -22l145 -85c26 -13 54 -20 82 -21s51 -1 73 -1h30v-81h-53c-4 0 -8 -1 -12 -1s-8 -1 -11 -1l5 -11c10 -21 25 -35 46 -43s54 -12 101 -12v-80z" />
    <glyph glyph-name="uniFEA5" unicode="&#x62e;" horiz-adv-x="631" arabic-form="isolated" 
d="M360 516h-84v84h84v-84zM58 16c0 114 86 202 256 264l-108 60c-18 8 -29 12 -36 12s-10 -2 -16 -9l-57 -63l-39 39l49 78c3 4 7 9 10 13s10 9 19 15s22 8 36 8s35 -8 63 -22l139 -74c25 -12 59 -18 100 -18c11 0 21 -1 30 -1h60v-80h-54c-72 0 -146 -16 -223 -47
c-108 -43 -162 -98 -162 -170s32 -119 98 -141c25 -9 57 -13 91 -13c86 0 158 8 217 26l17 -67c-77 -26 -155 -39 -234 -39h-2c-133 0 -215 51 -244 153c-8 24 -10 50 -10 76z" />
    <glyph glyph-name="khe.fina" unicode="&#x62e;" horiz-adv-x="631" arabic-form="final" 
d="M360 516h-84v84h84v-84zM58 16c0 114 86 202 256 264l-108 60c-18 8 -29 12 -36 12s-10 -2 -16 -9l-57 -63l-39 39l49 78c3 4 7 9 10 13s10 9 19 15s22 8 36 8s35 -8 63 -22l139 -74c25 -12 59 -18 100 -18c11 0 21 -1 30 -1h60v-80h-65l30 -83c8 -23 18 -40 29 -49
c20 -16 45 -26 76 -26v-80c-69 0 -118 26 -144 80c-8 16 -14 35 -20 55l-27 96c-163 -28 -263 -77 -303 -147c-10 -18 -16 -38 -16 -60c1 -104 67 -157 197 -157c81 0 151 8 210 26l17 -67c-77 -26 -155 -39 -234 -39h-2c-133 0 -215 51 -244 153c-8 24 -10 50 -10 76z" />
    <glyph glyph-name="khe.init" unicode="&#x62e;" horiz-adv-x="631" arabic-form="initial" 
d="M334 483h-83v83h83v-83zM573 148h-52c-28 0 -54 -9 -77 -25c-63 -50 -116 -82 -160 -98s-77 -25 -102 -25h-182c-10 0 -20 3 -30 6v74h212c45 0 97 21 161 62c15 10 29 18 38 26c-3 2 -9 4 -13 6s-7 4 -10 6l-146 84c-16 9 -28 13 -36 13s-14 -4 -22 -12l-55 -58l-41 38
l53 77c18 23 42 36 74 36c15 0 36 -7 59 -22l144 -85c26 -13 54 -20 82 -21s51 -1 73 -1h30v-81z" />
    <glyph glyph-name="khe.medi" unicode="&#x62e;" horiz-adv-x="644" arabic-form="medial" 
d="M334 483h-83v83h83v-83zM647 0c-67 0 -115 8 -140 21s-46 42 -60 85l-6 16c-68 -51 -121 -83 -161 -98s-73 -24 -102 -24h-178c-10 0 -20 3 -30 6v74h208c45 0 99 21 163 62c15 10 27 18 36 26c-3 2 -8 4 -12 6s-8 4 -10 6l-145 84c-16 9 -29 13 -37 13s-14 -4 -21 -12
l-55 -58l-41 38l52 77c16 23 42 36 74 36c15 0 35 -7 59 -22l145 -85c26 -13 54 -20 82 -21s51 -1 73 -1h30v-81h-53c-4 0 -8 -1 -12 -1s-8 -1 -11 -1l5 -11c10 -21 25 -35 46 -43s54 -12 101 -12v-80zM15 112z" />
    <glyph glyph-name="uniFEA9" unicode="&#x62f;" horiz-adv-x="481" arabic-form="isolated" 
d="M371 116c0 85 -43 168 -128 250l42 63c57 -52 100 -118 130 -197c13 -35 21 -73 21 -116c0 -35 -29 -66 -86 -92s-110 -39 -158 -39s-87 9 -113 25l32 70c16 -10 35 -14 57 -14c72 0 129 9 171 25c21 8 32 17 32 25z" />
    <glyph glyph-name="dal.fina" unicode="&#x62f;" horiz-adv-x="565" arabic-form="final" 
d="M386 121c-3 8 -47 96 -131 266l59 37l124 -257c19 -36 37 -59 53 -70s41 -17 75 -17v-80c-35 0 -63 4 -84 12s-40 23 -58 45c-52 -33 -111 -56 -178 -67c-22 -3 -42 -5 -63 -5c-42 0 -78 9 -104 25l32 70c16 -10 41 -14 73 -14s67 4 105 15s72 25 97 40z" />
    <glyph glyph-name="uniFEAB" unicode="&#x630;" horiz-adv-x="481" arabic-form="isolated" 
d="M251 516h-84v84h84v-84zM371 116c0 85 -43 168 -128 250l42 63c57 -52 100 -118 130 -197c13 -35 21 -73 21 -116c0 -35 -29 -66 -86 -92s-110 -39 -158 -39s-87 9 -113 25l32 70c16 -10 35 -14 57 -14c72 0 129 9 171 25c21 8 32 17 32 25z" />
    <glyph glyph-name="zal.fina" unicode="&#x630;" horiz-adv-x="565" arabic-form="final" 
d="M251 516h-84v84h84v-84zM386 121c-3 8 -47 96 -131 266l59 37l124 -257c19 -36 37 -59 53 -70s41 -17 75 -17v-80c-35 0 -63 4 -84 12s-40 23 -58 45c-52 -33 -111 -56 -178 -67c-22 -3 -42 -5 -63 -5c-42 0 -78 9 -104 25l32 70c16 -10 41 -14 73 -14s67 4 105 15
s72 25 97 40z" />
    <glyph glyph-name="uniFEAD" unicode="&#x631;" horiz-adv-x="451" arabic-form="isolated" 
d="M34 -156c154 56 249 116 283 179c8 13 11 30 11 51s-5 48 -16 81s-22 56 -33 69l52 50c25 -32 45 -83 58 -151c4 -20 6 -39 6 -59c0 -38 -17 -79 -51 -120c-57 -70 -154 -130 -289 -177z" />
    <glyph glyph-name="re.fina" unicode="&#x631;" horiz-adv-x="526" arabic-form="final" 
d="M527 0c-58 0 -102 10 -131 32c-15 -81 -102 -158 -262 -230c-24 -11 -47 -21 -70 -31l-28 72c22 11 45 21 68 32c89 41 150 77 183 109s49 63 49 95c0 58 -9 110 -27 152l63 24l26 -93c9 -29 19 -47 30 -56c22 -16 55 -26 99 -26v-80z" />
    <glyph glyph-name="uniFEAF" unicode="&#x632;" horiz-adv-x="451" arabic-form="isolated" 
d="M285 411h-84v84h84v-84zM34 -156c154 56 249 116 283 179c8 13 11 30 11 51s-5 48 -16 81s-22 56 -33 69l52 50c25 -32 45 -83 58 -151c4 -20 6 -39 6 -59c0 -38 -17 -79 -51 -120c-57 -70 -154 -130 -289 -177z" />
    <glyph glyph-name="ze.fina" unicode="&#x632;" horiz-adv-x="526" arabic-form="final" 
d="M285 411h-84v84h84v-84zM527 0c-58 0 -102 10 -131 32c-15 -81 -102 -158 -262 -230c-24 -11 -47 -21 -70 -31l-28 72c22 11 45 21 68 32c89 41 150 77 183 109s49 63 49 95c0 58 -9 110 -27 152l63 24l26 -93c9 -29 19 -47 30 -56c22 -16 55 -26 99 -26v-80z" />
    <glyph glyph-name="uniFEB1" unicode="&#x633;" horiz-adv-x="1075" arabic-form="isolated" 
d="M524 4c0 41 -20 92 -60 152l56 42l28 -43c16 -24 32 -44 47 -56s34 -19 57 -19s44 8 58 24s20 33 20 46v60h65v-64c0 -33 17 -53 48 -62c9 -2 18 -4 28 -4s25 4 41 8s29 12 36 23s10 20 11 28c0 30 -13 86 -39 170l67 6c21 -64 32 -106 34 -127s4 -39 4 -54
c0 -33 -16 -64 -48 -92s-71 -42 -116 -42s-79 18 -103 53c-26 -35 -60 -53 -102 -53c-29 0 -52 3 -68 11v-5c0 -70 -37 -126 -112 -162c-60 -30 -139 -44 -236 -44c-60 0 -108 15 -141 44s-51 70 -51 123s24 119 71 198l53 -24c-37 -69 -56 -124 -56 -164c0 -23 1 -40 7 -50
s13 -17 23 -25c23 -15 50 -22 81 -22c153 1 248 29 285 84c8 12 12 25 12 40z" />
    <glyph glyph-name="sin.fina" unicode="&#x633;" horiz-adv-x="1122" arabic-form="final" 
d="M795 146c0 -44 29 -66 83 -66c15 0 30 10 44 26s22 33 22 46v58h65v-63c0 -32 14 -52 45 -63c9 -3 17 -5 25 -4h44v-80h-44c-35 0 -64 10 -87 31c-9 8 -16 15 -22 24c-28 -36 -63 -55 -108 -55s-80 18 -104 53c-26 -35 -60 -53 -102 -53c-29 0 -52 3 -68 11v-5
c0 -70 -37 -126 -112 -162c-60 -30 -139 -44 -236 -44c-60 0 -108 15 -141 44s-51 70 -51 123s24 119 71 198l53 -24c-37 -69 -56 -124 -56 -164c0 -23 1 -40 7 -50s13 -17 23 -25c23 -15 50 -22 81 -22c153 1 248 29 285 84c8 12 12 25 12 40c0 41 -20 92 -60 152l56 42
l28 -43c16 -24 32 -44 47 -56s34 -19 57 -19s44 8 58 24s20 33 20 46v60h65v-64z" />
    <glyph glyph-name="sin.init" unicode="&#x633;" horiz-adv-x="797" arabic-form="initial" 
d="M306 144c0 -42 25 -64 76 -64c19 0 36 8 50 24s22 33 22 46v60h64v-64c0 -22 7 -38 21 -49s33 -17 55 -17s41 6 59 18s28 26 28 41c0 33 -15 90 -40 170l70 6c24 -75 36 -133 36 -171s-17 -71 -49 -100s-70 -43 -114 -44h-1c-44 0 -78 18 -102 53
c-26 -35 -63 -53 -109 -53s-81 17 -104 51c-10 -14 -25 -27 -46 -37s-43 -14 -67 -14h-155c-10 0 -20 3 -30 6v74h185c23 0 45 8 61 24s25 31 25 43v63h65v-66z" />
    <glyph glyph-name="sin.medi" unicode="&#x633;" horiz-adv-x="844" arabic-form="medial" 
d="M306 144c0 -42 25 -64 76 -64c19 0 36 8 50 24s22 33 22 46v60h64v-64c0 -22 7 -38 21 -49s32 -17 53 -17s38 10 52 26s22 32 22 46v58h64v-63c0 -22 8 -38 22 -49s31 -18 50 -18h44v-80h-44c-33 0 -63 10 -88 31c-9 8 -16 15 -22 24c-28 -36 -63 -55 -108 -55
s-79 18 -103 53c-26 -35 -63 -53 -109 -53s-81 17 -104 51c-10 -14 -25 -27 -46 -37s-43 -14 -67 -14h-155c-10 0 -20 3 -30 6v74h185c23 0 45 8 61 24s25 31 25 43v63h65v-66z" />
    <glyph glyph-name="uniFEB5" unicode="&#x634;" horiz-adv-x="1075" arabic-form="isolated" 
d="M714 365h-84v84h84v-84zM845 365h-84v84h84v-84zM779 493h-84v83h84v-83zM524 4c0 41 -20 92 -60 152l56 42l28 -43c16 -24 32 -44 47 -56s34 -19 57 -19s44 8 58 24s20 33 20 46v60h65v-64c0 -33 17 -53 48 -62c9 -2 18 -4 28 -4s25 4 41 8s29 12 36 23s10 20 11 28
c0 30 -13 86 -39 170l67 6c21 -64 32 -106 34 -127s4 -39 4 -54c0 -33 -16 -64 -48 -92s-71 -42 -116 -42s-79 18 -103 53c-26 -35 -60 -53 -102 -53c-29 0 -52 3 -68 11v-5c0 -70 -37 -126 -112 -162c-60 -30 -139 -44 -236 -44c-60 0 -108 15 -141 44s-51 70 -51 123
s24 119 71 198l53 -24c-37 -69 -56 -124 -56 -164c0 -23 1 -40 7 -50s13 -17 23 -25c23 -15 50 -22 81 -22c153 1 248 29 285 84c8 12 12 25 12 40z" />
    <glyph glyph-name="shin.fina" unicode="&#x634;" horiz-adv-x="1122" arabic-form="final" 
d="M714 365h-84v84h84v-84zM845 365h-84v84h84v-84zM779 493h-84v83h84v-83zM795 146c0 -44 29 -66 83 -66c15 0 30 10 44 26s22 33 22 46v58h65v-63c0 -32 14 -52 45 -63c9 -3 17 -5 25 -4h44v-80h-44c-35 0 -64 10 -87 31c-9 8 -16 15 -22 24c-28 -36 -63 -55 -108 -55
s-80 18 -104 53c-26 -35 -60 -53 -102 -53c-29 0 -52 3 -68 11v-5c0 -70 -37 -126 -112 -162c-60 -30 -139 -44 -236 -44c-60 0 -108 15 -141 44s-51 70 -51 123s24 119 71 198l53 -24c-37 -69 -56 -124 -56 -164c0 -23 1 -40 7 -50s13 -17 23 -25c23 -15 50 -22 81 -22
c153 1 248 29 285 84c8 12 12 25 12 40c0 41 -20 92 -60 152l56 42l28 -43c16 -24 32 -44 47 -56s34 -19 57 -19s44 8 58 24s20 33 20 46v60h65v-64z" />
    <glyph glyph-name="shin.init" unicode="&#x634;" horiz-adv-x="797" arabic-form="initial" 
d="M377 365h-83v84h83v-84zM508 365h-83v84h83v-84zM442 493h-83v83h83v-83zM306 144c0 -42 25 -64 76 -64c19 0 36 8 50 24s22 33 22 46v60h64v-64c0 -22 7 -38 21 -49s33 -17 55 -17s41 6 59 18s28 26 28 41c0 33 -15 90 -40 170l70 6c24 -75 36 -133 36 -171
s-17 -71 -49 -100s-70 -43 -114 -44h-1c-44 0 -78 18 -102 53c-26 -35 -63 -53 -109 -53s-81 17 -104 51c-10 -14 -25 -27 -46 -37s-43 -14 -67 -14h-155c-10 0 -20 3 -30 6v74h185c23 0 45 8 61 24s25 31 25 43v63h65v-66z" />
    <glyph glyph-name="shin.medi" unicode="&#x634;" horiz-adv-x="844" arabic-form="medial" 
d="M377 365h-83v84h83v-84zM508 365h-83v84h83v-84zM442 493h-83v83h83v-83zM306 144c0 -42 25 -64 76 -64c19 0 36 8 50 24s22 33 22 46v60h64v-64c0 -22 7 -38 21 -49s32 -17 53 -17s38 10 52 26s22 32 22 46v58h64v-63c0 -22 8 -38 22 -49s31 -18 50 -18h44v-80h-44
c-33 0 -63 10 -88 31c-9 8 -16 15 -22 24c-28 -36 -63 -55 -108 -55s-79 18 -103 53c-26 -35 -63 -53 -109 -53s-81 17 -104 51c-10 -14 -25 -27 -46 -37s-43 -14 -67 -14h-155c-10 0 -20 3 -30 6v74h185c23 0 45 8 61 24s25 31 25 43v63h65v-66z" />
    <glyph glyph-name="uniFEB9" unicode="&#x635;" horiz-adv-x="1145" arabic-form="isolated" 
d="M798 80c75 0 132 11 172 33s61 46 61 76c0 14 -6 28 -15 39c-19 21 -36 30 -56 30c-48 0 -108 -37 -176 -113c-19 -22 -36 -43 -54 -65h68zM524 4c0 41 -20 92 -60 152l56 42l28 -43c29 -47 59 -72 94 -73c78 104 147 178 203 216c41 28 76 42 107 42s57 -10 80 -29
c43 -34 65 -79 65 -133c0 -15 -7 -34 -19 -57s-31 -44 -55 -62c-55 -40 -129 -59 -225 -59h-137c-32 0 -57 3 -73 11v-5c0 -70 -37 -126 -112 -162c-60 -30 -139 -44 -236 -44c-60 0 -108 15 -141 44s-51 70 -51 123s24 119 71 198l53 -24c-37 -69 -56 -124 -56 -164
c0 -23 1 -40 7 -50s13 -17 23 -25c23 -15 50 -22 81 -22c153 1 248 29 285 84c8 12 12 25 12 40z" />
    <glyph glyph-name="sad.fina" unicode="&#x635;" horiz-adv-x="1173" arabic-form="final" 
d="M799 80c75 0 130 11 171 33s61 47 61 77c0 14 -4 28 -13 38c-18 21 -37 30 -57 30c-35 0 -72 -16 -110 -49s-77 -76 -119 -129h67zM524 4c0 41 -20 92 -60 152l56 42l28 -43c29 -47 60 -72 96 -73c81 107 150 179 204 215c43 29 82 43 117 43s66 -18 92 -53
s40 -68 40 -101s-13 -66 -41 -98c18 -6 57 -8 120 -8v-80c-37 0 -64 1 -78 2l-36 5c-24 3 -53 11 -88 25c-53 -21 -110 -32 -175 -32h-138c-32 0 -57 3 -73 11v-5c0 -70 -37 -126 -112 -162c-60 -30 -139 -44 -236 -44c-60 0 -108 15 -141 44s-51 70 -51 123s24 119 71 198
l53 -24c-37 -69 -56 -124 -56 -164c0 -23 1 -40 7 -50s13 -17 23 -25c23 -15 50 -22 81 -22c153 1 248 29 285 84c8 12 12 25 12 40z" />
    <glyph glyph-name="sad.init" unicode="&#x635;" horiz-adv-x="770" arabic-form="initial" 
d="M267 79c131 172 235 259 311 259c53 0 93 -30 123 -86c13 -24 18 -47 18 -68s-5 -43 -17 -66s-31 -43 -55 -61c-56 -41 -132 -60 -227 -60h-140c-18 0 -36 4 -57 13s-38 22 -51 41c-9 -13 -25 -26 -46 -36s-43 -15 -67 -15h-59c-10 0 -20 3 -30 6v74h89c23 0 42 8 60 24
s26 31 26 43v63h65v-66c0 -31 14 -50 39 -60c7 -2 11 -5 18 -5zM420 78c113 0 187 23 220 69c9 13 13 26 13 40s-7 30 -21 45s-29 23 -49 23h-1c-35 0 -72 -16 -110 -49s-78 -76 -118 -128h66z" />
    <glyph glyph-name="sad.medi" unicode="&#x635;" horiz-adv-x="797" arabic-form="medial" 
d="M676 86c14 -3 57 -6 124 -6v-80c-76 0 -126 3 -148 10s-40 13 -58 20c-54 -22 -112 -33 -175 -33h-141c-18 0 -36 4 -57 12s-39 22 -52 42c-9 -13 -24 -26 -45 -36s-44 -15 -67 -15h-57c-10 0 -20 3 -30 6v74h87c22 0 42 9 60 24s26 31 26 43v63h65v-66
c0 -31 13 -50 38 -60c7 -2 12 -5 19 -5c80 104 148 178 204 216c42 29 80 43 116 43s68 -18 94 -53s38 -68 38 -101s-13 -66 -41 -98zM419 78c76 0 133 11 173 33s59 46 59 72s-13 48 -39 66c-8 6 -22 7 -37 7c-56 0 -131 -59 -223 -178h67z" />
    <glyph glyph-name="uniFEBD" unicode="&#x636;" horiz-adv-x="1145" arabic-form="isolated" 
d="M870 444h-84v84h84v-84zM798 80c75 0 132 11 172 33s61 46 61 76c0 14 -6 28 -15 39c-19 21 -36 30 -56 30c-48 0 -108 -37 -176 -113c-19 -22 -36 -43 -54 -65h68zM524 4c0 41 -20 92 -60 152l56 42l28 -43c29 -47 59 -72 94 -73c78 104 147 178 203 216
c41 28 76 42 107 42s57 -10 80 -29c43 -34 65 -79 65 -133c0 -15 -7 -34 -19 -57s-31 -44 -55 -62c-55 -40 -129 -59 -225 -59h-137c-32 0 -57 3 -73 11v-5c0 -70 -37 -126 -112 -162c-60 -30 -139 -44 -236 -44c-60 0 -108 15 -141 44s-51 70 -51 123s24 119 71 198l53 -24
c-37 -69 -56 -124 -56 -164c0 -23 1 -40 7 -50s13 -17 23 -25c23 -15 50 -22 81 -22c153 1 248 29 285 84c8 12 12 25 12 40z" />
    <glyph glyph-name="zad.fina" unicode="&#x636;" horiz-adv-x="1173" arabic-form="final" 
d="M870 444h-84v84h84v-84zM799 80c75 0 130 11 171 33s61 47 61 77c0 14 -4 28 -13 38c-18 21 -37 30 -57 30c-35 0 -72 -16 -110 -49s-77 -76 -119 -129h67zM524 4c0 41 -20 92 -60 152l56 42l28 -43c29 -47 60 -72 96 -73c81 107 150 179 204 215c43 29 82 43 117 43
s66 -18 92 -53s40 -68 40 -101s-13 -66 -41 -98c18 -6 57 -8 120 -8v-80c-37 0 -64 1 -78 2l-36 5c-24 3 -53 11 -88 25c-53 -21 -110 -32 -175 -32h-138c-32 0 -57 3 -73 11v-5c0 -70 -37 -126 -112 -162c-60 -30 -139 -44 -236 -44c-60 0 -108 15 -141 44s-51 70 -51 123
s24 119 71 198l53 -24c-37 -69 -56 -124 -56 -164c0 -23 1 -40 7 -50s13 -17 23 -25c23 -15 50 -22 81 -22c153 1 248 29 285 84c8 12 12 25 12 40z" />
    <glyph glyph-name="zad.init" unicode="&#x636;" horiz-adv-x="770" arabic-form="initial" 
d="M488 444h-83v84h83v-84zM267 79c131 172 235 259 311 259c53 0 93 -30 123 -86c13 -24 18 -47 18 -68s-5 -43 -17 -66s-31 -43 -55 -61c-56 -41 -132 -60 -227 -60h-140c-18 0 -36 4 -57 13s-38 22 -51 41c-9 -13 -25 -26 -46 -36s-43 -15 -67 -15h-59c-10 0 -20 3 -30 6
v74h89c23 0 42 8 60 24s26 31 26 43v63h65v-66c0 -31 14 -50 39 -60c7 -2 11 -5 18 -5zM420 78c113 0 187 23 220 69c9 13 13 26 13 40s-7 30 -21 45s-29 23 -49 23h-1c-35 0 -72 -16 -110 -49s-78 -76 -118 -128h66z" />
    <glyph glyph-name="zad.medi" unicode="&#x636;" horiz-adv-x="797" arabic-form="medial" 
d="M488 444h-83v84h83v-84zM676 86c14 -3 57 -6 124 -6v-80c-76 0 -126 3 -148 10s-40 13 -58 20c-54 -22 -112 -33 -175 -33h-141c-18 0 -36 4 -57 12s-39 22 -52 42c-9 -13 -24 -26 -45 -36s-44 -15 -67 -15h-57c-10 0 -20 3 -30 6v74h87c22 0 42 9 60 24s26 31 26 43v63
h65v-66c0 -31 13 -50 38 -60c7 -2 12 -5 19 -5c80 104 148 178 204 216c42 29 80 43 116 43s68 -18 94 -53s38 -68 38 -101s-13 -66 -41 -98zM419 78c76 0 133 11 173 33s59 46 59 72s-13 48 -39 66c-8 6 -22 7 -37 7c-56 0 -131 -59 -223 -178h67z" />
    <glyph glyph-name="uniFEC1" unicode="&#x637;" horiz-adv-x="669" arabic-form="isolated" 
d="M135 87l13 15v511h65v-438c99 109 190 163 271 163c25 0 52 -11 78 -32s45 -52 55 -90c3 -11 3 -25 3 -40s-6 -35 -18 -58s-31 -43 -56 -61c-58 -41 -141 -60 -248 -60s-184 8 -232 26l22 76c13 -6 29 -10 47 -12zM223 79c16 -1 34 -1 50 -1h46c76 0 134 11 175 33
s60 46 60 72s-12 48 -40 66c-10 6 -24 7 -39 7s-35 -5 -59 -15s-50 -27 -80 -50s-68 -60 -113 -112z" />
    <glyph glyph-name="ta.fina" unicode="&#x637;" horiz-adv-x="698" arabic-form="final" 
d="M222 79c16 -1 33 -1 49 -1h46c76 0 134 11 175 33s61 46 61 75c0 14 -5 27 -14 38c-19 21 -37 32 -58 32c-41 0 -84 -16 -127 -49s-87 -76 -132 -128zM86 100c7 -3 23 -7 49 -13l12 15v511h65v-438c99 109 190 163 271 163c25 0 52 -11 78 -32s44 -52 54 -90
c3 -11 4 -21 4 -30c0 -36 -15 -69 -44 -101c13 -3 30 -5 51 -5h76v-80c-75 0 -125 3 -149 10s-44 13 -60 20c-54 -22 -115 -33 -183 -33c-114 0 -197 8 -245 26z" />
    <glyph glyph-name="ta.init" unicode="&#x637;" horiz-adv-x="614" arabic-form="initial" 
d="M263 80c76 0 134 11 175 32s61 45 61 71s-13 49 -41 67c-9 6 -22 7 -37 7s-35 -5 -60 -16c-56 -25 -121 -80 -194 -161h96zM75 80l17 22v511h65v-438c101 109 192 163 272 163c24 0 50 -11 76 -32s45 -50 55 -90c3 -11 4 -24 4 -39s-6 -35 -18 -58s-31 -43 -56 -61
c-55 -38 -131 -58 -227 -58h-263c-10 0 -20 3 -30 6v74h105z" />
    <glyph glyph-name="ta.medi" unicode="&#x637;" horiz-adv-x="644" arabic-form="medial" 
d="M264 80c76 0 134 11 175 32s60 46 60 72s-13 47 -38 62c-11 7 -25 10 -41 10s-35 -5 -58 -15c-55 -24 -121 -79 -194 -161h96zM75 80l19 22v511h64v-438c47 52 86 85 117 105c58 38 109 58 150 58s75 -18 101 -53s39 -69 39 -102s-14 -66 -43 -98c13 -3 30 -5 50 -5h75
v-80c-74 0 -129 5 -164 14c-14 3 -31 9 -47 16c-51 -20 -107 -30 -172 -30h-264c-10 0 -20 3 -30 6v74h105z" />
    <glyph glyph-name="uniFEC5" unicode="&#x638;" horiz-adv-x="669" arabic-form="isolated" 
d="M415 444h-84v84h84v-84zM135 87l13 15v511h65v-438c99 109 190 163 271 163c25 0 52 -11 78 -32s45 -52 55 -90c3 -11 3 -25 3 -40s-6 -35 -18 -58s-31 -43 -56 -61c-58 -41 -141 -60 -248 -60s-184 8 -232 26l22 76c13 -6 29 -10 47 -12zM223 79c16 -1 34 -1 50 -1h46
c76 0 134 11 175 33s60 46 60 72s-12 48 -40 66c-10 6 -24 7 -39 7s-35 -5 -59 -15s-50 -27 -80 -50s-68 -60 -113 -112z" />
    <glyph glyph-name="za.fina" unicode="&#x638;" horiz-adv-x="698" arabic-form="final" 
d="M415 444h-84v84h84v-84zM222 79c16 -1 33 -1 49 -1h46c76 0 134 11 175 33s61 46 61 75c0 14 -5 27 -14 38c-19 21 -37 32 -58 32c-41 0 -84 -16 -127 -49s-87 -76 -132 -128zM86 100c7 -3 23 -7 49 -13l12 15v511h65v-438c99 109 190 163 271 163c25 0 52 -11 78 -32
s44 -52 54 -90c3 -11 4 -21 4 -30c0 -36 -15 -69 -44 -101c13 -3 30 -5 51 -5h76v-80c-75 0 -125 3 -149 10s-44 13 -60 20c-54 -22 -115 -33 -183 -33c-114 0 -197 8 -245 26z" />
    <glyph glyph-name="za.init" unicode="&#x638;" horiz-adv-x="614" arabic-form="initial" 
d="M363 444h-84v84h84v-84zM263 80c76 0 134 11 175 32s61 45 61 71s-13 49 -41 67c-9 6 -22 7 -37 7s-35 -5 -60 -16c-56 -25 -121 -80 -194 -161h96zM75 80l17 22v511h65v-438c101 109 192 163 272 163c24 0 50 -11 76 -32s45 -50 55 -90c3 -11 4 -24 4 -39
s-6 -35 -18 -58s-31 -43 -56 -61c-55 -38 -131 -58 -227 -58h-263c-10 0 -20 3 -30 6v74h105z" />
    <glyph glyph-name="za.medi" unicode="&#x638;" horiz-adv-x="644" arabic-form="medial" 
d="M363 444h-84v84h84v-84zM264 80c76 0 134 11 175 32s60 46 60 72s-13 47 -38 62c-11 7 -25 10 -41 10s-35 -5 -58 -15c-55 -24 -121 -79 -194 -161h96zM75 80l19 22v511h64v-438c47 52 86 85 117 105c58 38 109 58 150 58s75 -18 101 -53s39 -69 39 -102s-14 -66 -43 -98
c13 -3 30 -5 50 -5h75v-80c-74 0 -129 5 -164 14c-14 3 -31 9 -47 16c-51 -20 -107 -30 -172 -30h-264c-10 0 -20 3 -30 6v74h105z" />
    <glyph glyph-name="uniFEC9" unicode="&#x639;" horiz-adv-x="526" arabic-form="isolated" 
d="M249 410h-3c-14 0 -31 -6 -47 -18s-25 -26 -25 -39c0 -41 31 -74 91 -99c51 23 107 42 167 56l15 -72c-219 -58 -329 -146 -329 -259c0 -41 26 -71 80 -92c38 -15 88 -23 148 -23c20 0 56 0 108 2l11 -62c-44 -14 -81 -22 -110 -22s-58 3 -90 6s-62 13 -93 28
s-55 30 -70 44c-34 33 -51 73 -51 120c0 87 45 164 133 230c-50 34 -75 81 -75 144c0 33 15 63 47 92s60 42 84 42h1c44 0 89 -9 135 -28l-22 -63c-19 8 -53 13 -105 13z" />
    <glyph glyph-name="ein.fina" unicode="&#x639;" horiz-adv-x="526" arabic-form="final" 
d="M342 -128c26 0 67 2 120 3l6 -69c-37 -10 -76 -14 -114 -14h-4c-110 0 -190 23 -236 70c-34 34 -50 74 -50 120c0 80 41 151 125 213c30 22 66 41 104 57c-12 24 -34 36 -67 36l-4 62c50 20 88 30 117 30s53 -7 73 -21s31 -34 31 -58s-13 -49 -38 -75
c-8 -9 -18 -16 -29 -24c16 -51 37 -84 60 -99s53 -23 91 -23v-80c-57 0 -99 7 -124 25c-36 24 -65 75 -88 151c-46 -18 -89 -44 -127 -79s-57 -74 -57 -115c0 -25 11 -47 34 -66c35 -29 95 -44 177 -44z" />
    <glyph glyph-name="ein.init" unicode="&#x639;" horiz-adv-x="481" arabic-form="initial" 
d="M252 118l173 57l18 -77c-34 -12 -67 -24 -100 -35c-118 -42 -220 -63 -306 -63h-37c-10 0 -20 3 -30 6v74h67c40 0 75 3 106 10c-48 41 -73 92 -73 155c0 33 17 64 48 93s69 43 113 43s91 -8 142 -22l-17 -79c-52 13 -91 19 -120 19s-52 -5 -71 -16s-29 -23 -29 -35
c0 -23 10 -46 26 -70s47 -45 90 -60z" />
    <glyph glyph-name="uniFECC" unicode="&#x639;" horiz-adv-x="374" arabic-form="medial" 
d="M67 254c59 22 104 33 132 33s51 -7 71 -20s28 -33 28 -56s-9 -45 -30 -67c-7 -7 -12 -15 -20 -23c13 -15 29 -26 49 -32s45 -9 79 -9v-80c-44 0 -76 3 -96 11c-36 13 -62 32 -81 58c-38 -36 -81 -58 -127 -65c-15 -3 -29 -4 -42 -4h-30c-10 0 -20 3 -30 6v74h60
c51 0 94 18 131 52c-24 42 -55 63 -92 63z" />
    <glyph glyph-name="uniFECD" unicode="&#x63a;" horiz-adv-x="526" arabic-form="isolated" 
d="M305 570h-84v83h84v-83zM249 410h-3c-14 0 -31 -6 -47 -18s-25 -26 -25 -39c0 -41 31 -74 91 -99c51 23 107 42 167 56l15 -72c-219 -58 -329 -146 -329 -259c0 -41 26 -71 80 -92c38 -15 88 -23 148 -23c20 0 56 0 108 2l11 -62c-44 -14 -81 -22 -110 -22s-58 3 -90 6
s-62 13 -93 28s-55 30 -70 44c-34 33 -51 73 -51 120c0 87 45 164 133 230c-50 34 -75 81 -75 144c0 33 15 63 47 92s60 42 84 42h1c44 0 89 -9 135 -28l-22 -63c-19 8 -53 13 -105 13z" />
    <glyph glyph-name="qein.fina" unicode="&#x63a;" horiz-adv-x="526" arabic-form="final" 
d="M368 483h-83v83h83v-83zM342 -128c26 0 67 2 120 3l6 -69c-37 -10 -76 -14 -114 -14h-4c-110 0 -190 23 -236 70c-34 34 -50 74 -50 120c0 80 41 151 125 213c30 22 66 41 104 57c-12 24 -34 36 -67 36l-4 62c50 20 88 30 117 30s53 -7 73 -21s31 -34 31 -58
s-13 -49 -38 -75c-8 -9 -18 -16 -29 -24c16 -51 37 -84 60 -99s53 -23 91 -23v-80c-57 0 -99 7 -124 25c-36 24 -65 75 -88 151c-46 -18 -89 -44 -127 -79s-57 -74 -57 -115c0 -25 11 -47 34 -66c35 -29 95 -44 177 -44z" />
    <glyph glyph-name="qein.init" unicode="&#x63a;" horiz-adv-x="481" arabic-form="initial" 
d="M275 483h-84v83h84v-83zM252 118l173 57l18 -77c-34 -12 -67 -24 -100 -35c-118 -42 -220 -63 -306 -63h-37c-10 0 -20 3 -30 6v74h67c40 0 75 3 106 10c-48 41 -73 92 -73 155c0 33 17 64 48 93s69 43 113 43s91 -8 142 -22l-17 -79c-52 13 -91 19 -120 19
s-52 -5 -71 -16s-29 -23 -29 -35c0 -23 10 -46 26 -70s47 -45 90 -60z" />
    <glyph glyph-name="qein.medi" unicode="&#x63a;" horiz-adv-x="374" arabic-form="medial" 
d="M233 411h-83v84h83v-84zM67 254c59 22 104 33 132 33s51 -7 71 -20s28 -33 28 -56s-9 -45 -30 -67c-7 -7 -12 -15 -20 -23c13 -15 29 -26 49 -32s45 -9 79 -9v-80c-44 0 -76 3 -96 11c-36 13 -62 32 -81 58c-38 -36 -81 -58 -127 -65c-15 -3 -29 -4 -42 -4h-30
c-10 0 -20 3 -30 6v74h60c51 0 94 18 131 52c-24 42 -55 63 -92 63z" />
    <glyph glyph-name="uniFED1" unicode="&#x641;" horiz-adv-x="884" arabic-form="isolated" 
d="M732 516h-84v84h84v-84zM638 263c0 -12 25 -19 73 -19h18c11 0 26 3 44 11c-10 48 -33 81 -67 96c-9 4 -16 7 -24 7s-12 -3 -18 -10c-16 -22 -25 -50 -26 -85zM711 163c-92 0 -138 34 -138 100c0 38 8 72 24 103c25 47 53 71 83 71c37 0 71 -16 102 -49
c38 -40 57 -90 57 -153c0 -100 -14 -161 -43 -184s-85 -40 -170 -51s-162 -15 -230 -15h-55c-35 0 -72 2 -107 9c-118 22 -177 75 -177 159c0 47 14 104 39 171l65 -13c-4 -12 -11 -35 -22 -67s-17 -62 -17 -91s21 -51 63 -66s93 -22 155 -22c191 0 326 15 404 45
c14 8 24 28 28 63c-16 -7 -37 -10 -61 -10z" />
    <glyph glyph-name="fe.fina" unicode="&#x641;" horiz-adv-x="884" arabic-form="final" 
d="M755 483h-84v83h84v-83zM122 154c0 -59 81 -89 244 -89c80 0 164 11 251 33c-23 26 -35 60 -35 104s26 86 79 124c23 16 45 25 68 25s45 -14 67 -44s33 -63 33 -100s-20 -75 -58 -112c40 -10 79 -15 116 -15v-80c-73 0 -139 14 -195 43c-87 -38 -201 -58 -343 -58h-4
c-84 0 -152 12 -206 40s-82 71 -82 127c0 48 14 105 39 172l65 -13c-4 -12 -11 -36 -22 -68s-17 -61 -17 -89zM694 130c47 29 70 54 70 78c0 15 -4 30 -13 43s-16 21 -25 21c-18 0 -35 -10 -53 -26s-26 -31 -26 -46s3 -28 11 -38s20 -21 36 -32z" />
    <glyph glyph-name="fe.init" unicode="&#x641;" horiz-adv-x="374" arabic-form="initial" 
d="M221 515h-83v83h83v-83zM197 162c-92 0 -139 34 -139 100c0 40 11 78 32 116s47 58 80 58s68 -18 103 -54s51 -88 51 -155c0 -96 -12 -155 -41 -177c-43 -33 -127 -50 -255 -50h-28c-10 0 -20 3 -30 6v74h58c74 0 125 4 156 12s48 16 52 20s10 10 13 17s6 21 9 43
c-18 -7 -38 -10 -61 -10zM122 262c0 -12 25 -19 75 -19c23 0 42 4 61 12c-10 48 -31 80 -66 95c-9 4 -17 6 -24 6s-12 -2 -15 -6c-20 -24 -31 -53 -31 -88z" />
    <glyph glyph-name="fe.medi" unicode="&#x641;" horiz-adv-x="374" arabic-form="medial" 
d="M233 483h-83v83h83v-83zM187 125c43 25 64 54 64 84c0 13 -4 27 -13 41s-19 21 -28 21c-16 0 -32 -10 -50 -25s-28 -32 -28 -47s5 -27 14 -38s22 -24 41 -36zM258 95c38 -9 77 -15 118 -15v-80c-75 0 -139 14 -194 40c-53 -26 -106 -40 -161 -40h-21c-10 0 -20 3 -30 6
v74h51c30 0 58 4 87 12c-28 29 -41 63 -41 100s17 74 50 108s64 51 90 51s51 -14 73 -43c23 -30 35 -64 35 -102c0 -37 -20 -75 -57 -111z" />
    <glyph glyph-name="uniFED5" unicode="&#x642;" horiz-adv-x="660" arabic-form="isolated" 
d="M432 411h-83v84h83v-84zM556 411h-84v84h84v-84zM473 133c22 0 42 3 62 11c-9 31 -22 56 -37 75s-33 27 -54 27c-11 0 -21 -9 -30 -29s-14 -41 -14 -63c0 -14 25 -21 73 -21zM172 141c-37 -69 -56 -124 -56 -164c0 -23 1 -40 7 -50s13 -17 23 -25c23 -15 50 -22 81 -22
c164 1 264 29 304 84c9 12 13 27 13 42v58c-23 -8 -49 -11 -79 -11s-55 5 -77 14c-35 14 -52 42 -52 83s9 80 31 118s45 59 73 59h1c52 0 93 -24 123 -75s45 -116 45 -194v-52c0 -70 -41 -126 -123 -162c-66 -30 -147 -44 -246 -44c-60 0 -108 15 -141 44s-51 70 -51 123
s24 119 71 198z" />
    <glyph glyph-name="qaf.fina" unicode="&#x642;" horiz-adv-x="691" arabic-form="final" 
d="M432 411h-83v84h83v-84zM556 411h-84v84h84v-84zM172 141c-37 -69 -56 -124 -56 -164c0 -23 1 -40 7 -50s13 -17 23 -25c23 -15 50 -22 81 -22c124 1 215 18 271 52c33 20 50 45 50 75c-58 9 -100 19 -123 31s-40 25 -51 39s-16 30 -16 49c0 41 9 81 31 119s46 57 76 57
c94 0 143 -73 147 -220c23 -1 50 -2 81 -2v-80c-34 0 -59 1 -80 2c-2 -70 -45 -124 -127 -159c-67 -29 -149 -43 -246 -43c-60 0 -108 15 -141 44s-51 70 -51 123s24 119 71 198zM548 85c-7 91 -35 137 -83 137c-11 0 -20 -11 -29 -32s-15 -41 -15 -62c0 -18 26 -30 78 -38
c15 -2 33 -3 49 -5z" />
    <glyph glyph-name="qaf.init" unicode="&#x642;" horiz-adv-x="374" arabic-form="initial" 
d="M160 515h-84v83h84v-83zM283 515h-84v83h84v-83zM197 162c-92 0 -139 34 -139 100c0 40 11 78 32 116s47 58 80 58s68 -18 103 -54s51 -88 51 -155c0 -96 -12 -155 -41 -177c-43 -33 -127 -50 -255 -50h-28c-10 0 -20 3 -30 6v74h58c74 0 125 4 156 12s48 16 52 20
s10 10 13 17s6 21 9 43c-18 -7 -38 -10 -61 -10zM122 262c0 -12 25 -19 75 -19c23 0 42 4 61 12c-10 48 -31 80 -66 95c-9 4 -17 6 -24 6s-12 -2 -15 -6c-20 -24 -31 -53 -31 -88z" />
    <glyph glyph-name="qaf.medi" unicode="&#x642;" horiz-adv-x="374" arabic-form="medial" 
d="M172 483h-84v83h84v-83zM295 483h-84v83h84v-83zM187 125c43 25 64 54 64 84c0 13 -4 27 -13 41s-19 21 -28 21c-16 0 -32 -10 -50 -25s-28 -32 -28 -47s5 -27 14 -38s22 -24 41 -36zM258 95c38 -9 77 -15 118 -15v-80c-75 0 -139 14 -194 40c-53 -26 -106 -40 -161 -40
h-21c-10 0 -20 3 -30 6v74h51c30 0 58 4 87 12c-28 29 -41 63 -41 100s17 74 50 108s64 51 90 51s51 -14 73 -43c23 -30 35 -64 35 -102c0 -37 -20 -75 -57 -111z" />
    <glyph glyph-name="uniFED9" unicode="&#x643;" horiz-adv-x="669" arabic-form="isolated" 
d="M389 426c-37 0 -65 -9 -84 -27c-10 -10 -10 -18 0 -22c4 -2 9 -6 16 -9l21 -9c29 -13 43 -35 43 -60c0 -26 -22 -48 -67 -66c-35 -14 -66 -21 -94 -21h-2v54c33 0 59 3 77 10s30 10 34 13s7 7 7 10c0 1 -2 4 -9 7l-20 10c-21 10 -36 19 -45 29s-13 23 -13 36
c0 25 13 48 41 69s59 32 95 32v-56zM75 97c41 -18 99 -28 176 -28c134 0 215 6 240 18s38 41 38 85v441h65v-441c0 -80 -19 -131 -60 -151c-32 -16 -107 -26 -224 -32c-21 -1 -46 -1 -75 -1c-73 0 -133 13 -184 37z" />
    <glyph glyph-name="uniFEDA" unicode="&#x643;" horiz-adv-x="706" arabic-form="final" 
d="M75 97c41 -18 99 -28 176 -28c130 0 208 6 233 18s38 41 38 85v441h64v-413c0 -44 6 -71 17 -84s26 -22 41 -28s36 -8 64 -8v-80c-41 0 -72 5 -94 14s-40 23 -54 39c-15 -23 -38 -37 -69 -45c-70 -13 -139 -20 -203 -20s-113 3 -147 10s-65 15 -90 27zM389 426
c-37 0 -65 -9 -84 -27c-10 -10 -10 -18 0 -22c4 -2 9 -6 16 -9l21 -9c29 -13 43 -34 43 -60s-22 -48 -67 -66c-35 -14 -66 -21 -94 -21h-2v54c33 0 59 3 77 10s30 10 34 13s7 7 7 10c0 1 -2 4 -9 7l-20 10c-21 10 -36 19 -45 29s-13 23 -13 36c0 25 13 48 41 69s59 32 95 32
v-56z" />
    <glyph glyph-name="uniFEDB" unicode="&#x643;" horiz-adv-x="426" arabic-form="initial" 
d="M-30 6v74h60c82 0 139 14 172 42c11 9 17 24 17 39c0 32 -19 62 -56 94c-28 23 -72 53 -135 87l10 108c92 63 181 114 267 158c29 14 56 26 81 34l21 -77c-85 -32 -191 -89 -316 -171c62 -36 104 -67 127 -92c44 -48 66 -95 66 -139c0 -23 -3 -41 -10 -56
c-19 -41 -59 -71 -123 -91c-36 -11 -68 -16 -94 -16h-56c-10 0 -21 3 -31 6z" />
    <glyph glyph-name="uniFEDC" unicode="&#x643;" horiz-adv-x="481" arabic-form="medial" 
d="M483 0c-60 0 -108 25 -142 73c-10 13 -18 27 -24 38s-11 21 -17 28s-10 14 -16 22c0 -53 -26 -94 -80 -124c-46 -25 -105 -37 -174 -37h-30c-10 0 -20 3 -30 6v74h60c82 0 139 14 172 42c11 9 17 24 17 39c0 32 -19 62 -56 94c-28 23 -72 53 -135 87l10 108
c92 63 181 114 267 158c29 14 56 26 81 34l21 -77c-86 -32 -192 -89 -316 -171c89 -53 153 -99 194 -139s68 -73 82 -98s28 -42 39 -51c23 -16 48 -26 77 -26v-80z" />
    <glyph glyph-name="uniFEDD" unicode="&#x644;" horiz-adv-x="663" arabic-form="isolated" 
d="M172 141c-37 -69 -56 -124 -56 -164c0 -23 1 -40 7 -50s13 -17 23 -25c23 -15 50 -22 81 -22c153 1 249 29 286 84c8 12 12 21 12 29v620h63v-607c0 -70 -37 -126 -112 -162c-60 -30 -139 -44 -236 -44c-60 0 -108 15 -141 44s-51 70 -51 123s24 119 71 198z" />
    <glyph glyph-name="lam.fina" unicode="&#x644;" horiz-adv-x="706" arabic-form="final" 
d="M172 141c-37 -69 -56 -124 -56 -164c0 -23 1 -40 7 -50s13 -17 23 -25c23 -15 50 -22 81 -22c153 1 249 29 286 84c8 12 12 21 12 29v620h63v-461c0 -47 40 -72 120 -72v-80c-50 0 -89 8 -120 23v-17c0 -70 -37 -126 -112 -162c-60 -30 -139 -44 -236 -44
c-60 0 -108 15 -141 44s-51 70 -51 123s24 119 71 198z" />
    <glyph glyph-name="lam.init" unicode="&#x644;" horiz-adv-x="271" arabic-form="initial" 
d="M129 613h65v-441c0 -68 -14 -115 -39 -138s-63 -34 -114 -34h-41c-10 0 -20 3 -30 6v74h71c29 0 48 5 59 14c19 16 29 42 29 78v441z" />
    </font>
</defs>
</svg>
